#N canvas 746 452 473 213 12;
#X obj 36 30 inlet;
#X text 88 29 <== send bang to inlet;
#X obj 68 110 f 123;
#X obj 36 110 f 0;
#X obj 36 163 outlet;
#X text 328 65 <== all notes off;
#X obj 280 30 inlet;
#X text 329 30 <== channel;
#X obj 280 67 + 176;
#X obj 280 111 f 176;
#X obj 36 66 t b b b;
#X connect 0 0 10 0;
#X connect 2 0 4 0;
#X connect 3 0 4 0;
#X connect 6 0 8 0;
#X connect 8 0 9 1;
#X connect 9 0 4 0;
#X connect 10 0 3 0;
#X connect 10 1 2 0;
#X connect 10 2 9 0;
