#N canvas 709 59 736 524 12;
#X declare -lib tof;
#X declare -lib cyclone;
#X declare -lib ggee;
#X declare -lib zexy;
#X declare -lib iemlib;
#X declare -lib easyflow;
#X declare -path lib;
#X obj 10 8 cnv 15 200 500 empty empty empty 20 12 0 14 -204800 -66577
0;
#N canvas 802 190 362 245 libraries 0;
#X obj 29 52 declare -lib tof;
#X obj 29 79 declare -lib cyclone;
#X text 28 22 Dependencies:;
#X obj 29 106 declare -lib ggee;
#X obj 29 133 declare -lib zexy;
#X obj 29 160 declare -lib iemlib;
#X obj 29 187 declare -lib easyflow;
#X obj 210 52 declare -path lib;
#X restore 28 423 pd libraries;
#X text 28 371 Do not delete:;
#X obj 93 124 song-start;
#X obj 144 133 song-end;
#X obj 29 124 song-stop;
#X obj 222 8 cnv 15 500 500 empty empty empty 20 12 0 14 -204800 -66577
0;
#X obj 272 224 psync;
#X obj 272 191 bng 15 250 50 0 empty empty empty 17 7 0 10 -262130
-258113 -1;
#X obj 447 139 bng 15 250 50 0 empty empty empty 17 7 0 10 -262130
-258113 -1;
#X obj 272 252 bng 15 250 50 0 empty empty empty 17 7 0 10 -262130
-258113 -1;
#X text 320 223 <== wait for both inlets to bang;
#X text 431 408 <== click to edit pattern;
#X obj 272 162 pattern Pattern-01;
#X obj 293 409 pattern Pattern-03;
#X obj 447 113 pattern Pattern-02;
#X obj 272 24 song-start;
#X obj 339 363 song-end;
#X obj 447 162 pwait 2000;
#X obj 447 187 bng 15 250 50 0 empty empty empty 17 7 0 10 -262130
-258113 -1;
#X obj 272 139 bng 15 250 50 0 empty empty empty 17 7 0 10 -262130
-258113 -1;
#X text 531 161 <== wait 2000 ms.;
#X obj 293 455 pattern Pattern-01;
#X obj 293 434 bng 15 250 50 0 empty empty empty 17 7 0 10 -262130
-258113 -1;
#X text 354 15 Example of a Song:;
#X obj 447 88 bng 15 250 50 0 empty empty empty 17 7 0 10 -262130 -258113
-1;
#X obj 272 88 bng 15 250 50 0 empty empty empty 17 7 0 10 -262130 -258113
-1;
#X text 31 98 Copy and paste:;
#X obj 31 191 pattern Empty;
#X obj 31 222 pwait;
#X obj 31 253 psync;
#X obj 466 256 song-stop;
#X obj 31 321 bng 15 250 50 0 empty empty empty 17 7 0 10 -262130 -258113
-1;
#X obj 31 284 pfor;
#X obj 272 279 t b b;
#X msg 304 304 start;
#X obj 272 334 pfor 1 3 1;
#X obj 236 395 bng 15 250 50 0 empty empty empty 17 7 0 10 -262130
-258113 -1;
#X text 504 274 <== click to stop song;
#X obj 293 387 bng 15 250 50 0 empty empty empty 17 7 0 10 -262130
-258113 -1;
#X text 357 333 <== loop 3 times;
#X obj 29 444 song-record;
#X text 58 464 <== save MIDI file;
#X obj 272 113 pwait 2000;
#X text 367 363 <== song is finished;
#N canvas 0 50 450 300 msg-log 0;
#X obj 27 18 receive msg-log-r;
#X obj 59 87 unpack s s;
#X obj 27 242 print Log;
#X obj 27 160 time XXXXXXXXXXX;
#X obj 27 209 cyclone/sprintf [%02d:%02d:%02d.%03d] %s %s;
#X obj 27 56 t b a;
#X connect 0 0 5 0;
#X connect 1 0 4 4;
#X connect 1 1 4 5;
#X connect 3 0 4 0;
#X connect 3 1 4 1;
#X connect 3 2 4 2;
#X connect 3 3 4 3;
#X connect 4 0 2 0;
#X connect 5 0 3 0;
#X connect 5 1 1 0;
#X restore 28 396 pd msg-log;
#X text 32 23 Drum Sequencer v0.4 \; Copyright (c) 2021 \; David Kettle
;
#X connect 7 0 10 0;
#X connect 8 0 7 0;
#X connect 9 0 18 0;
#X connect 10 0 34 0;
#X connect 13 0 8 0;
#X connect 14 0 23 0;
#X connect 15 0 9 0;
#X connect 16 0 25 0;
#X connect 16 0 26 0;
#X connect 18 0 19 0;
#X connect 19 0 7 1;
#X connect 20 0 13 0;
#X connect 22 0 37 0;
#X connect 23 0 22 0;
#X connect 25 0 15 0;
#X connect 26 0 43 0;
#X connect 34 0 36 0;
#X connect 34 1 35 0;
#X connect 35 0 36 0;
#X connect 36 0 39 0;
#X connect 36 1 17 0;
#X connect 37 0 36 0;
#X connect 39 0 14 0;
#X connect 43 0 20 0;
