#N canvas 302 127 949 635 12;
#X obj 33 20 inlet;
#X obj 296 62 send \$1-tempo-r;
#X obj 296 86 receive \$1-tempo-s;
#X obj 296 114 t b f;
#X floatatom 361 140 5 0 0 1 BPM - -;
#X obj 296 172 /;
#X floatatom 296 201 8 0 0 1 MS_per_beat - -;
#X obj 88 23 bng 15 250 50 0 empty empty empty 17 7 0 10 -262144 -1
-1;
#X obj 296 140 f 60000;
#X obj 776 330 send \$1-beat-len-r;
#X obj 776 354 receive \$1-beat-len-s;
#X obj 296 330 send \$1-channel-r;
#X obj 296 354 receive \$1-channel-s;
#X obj 616 330 send \$1-repeat-r;
#X obj 616 354 receive \$1-repeat-s;
#X floatatom 296 378 5 0 0 0 - - -;
#X floatatom 456 378 5 0 0 0 - - -;
#X floatatom 616 378 5 0 0 0 - - -;
#X floatatom 776 378 5 0 0 0 - - -;
#X floatatom 297 538 5 0 0 0 - - -;
#X floatatom 457 538 5 0 0 0 - - -;
#X floatatom 617 538 5 0 0 0 - - -;
#X floatatom 777 538 5 0 0 0 - - -;
#X obj 312 303 bng 15 250 50 0 empty empty empty 17 7 0 10 -262144
-1 -1;
#X obj 475 303 bng 15 250 50 0 empty empty empty 17 7 0 10 -262144
-1 -1;
#X obj 636 303 bng 15 250 50 0 empty empty empty 17 7 0 10 -262144
-1 -1;
#X obj 799 303 bng 15 250 50 0 empty empty empty 17 7 0 10 -262144
-1 -1;
#X obj 313 464 bng 15 250 50 0 empty empty empty 17 7 0 10 -262144
-1 -1;
#X obj 476 464 bng 15 250 50 0 empty empty empty 17 7 0 10 -262144
-1 -1;
#X obj 637 464 bng 15 250 50 0 empty empty empty 17 7 0 10 -262144
-1 -1;
#X obj 800 464 bng 15 250 50 0 empty empty empty 17 7 0 10 -262144
-1 -1;
#X obj 456 330 send \$1-steps-r;
#X obj 456 354 receive \$1-steps-s;
#X obj 297 489 send \$1-level-1-r;
#X obj 297 513 receive \$1-level-1-s;
#X obj 457 488 send \$1-level-2-r;
#X obj 457 512 receive \$1-level-2-s;
#X obj 617 489 send \$1-level-3-r;
#X obj 617 513 receive \$1-level-3-s;
#X obj 777 488 send \$1-level-4-r;
#X obj 777 512 receive \$1-level-4-s;
#X obj 296 229 send \$0-out-1;
#X obj 296 402 send \$0-out-2;
#X obj 456 402 send \$0-out-3;
#X obj 616 402 send \$0-out-4;
#X obj 776 402 send \$0-out-5;
#X obj 297 562 send \$0-out-6;
#X obj 457 562 send \$0-out-7;
#X obj 617 562 send \$0-out-8;
#X obj 777 562 send \$0-out-9;
#X obj 34 536 pack f f f f f f f f f;
#X obj 34 560 outlet;
#X obj 296 31 receive \$0-get-1;
#X obj 296 277 receive \$0-get-2;
#X obj 456 277 receive \$0-get-3;
#X obj 776 277 receive \$0-get-5;
#X obj 616 277 receive \$0-get-4;
#X obj 297 437 receive \$0-get-6;
#X obj 457 436 receive \$0-get-7;
#X obj 617 437 receive \$0-get-8;
#X obj 777 436 receive \$0-get-9;
#X obj 185 513 r \$0-out-9;
#X obj 34 324 r \$0-out-1;
#X obj 52 348 r \$0-out-2;
#X obj 71 371 r \$0-out-3;
#X obj 90 395 r \$0-out-4;
#X obj 109 419 r \$0-out-5;
#X obj 128 442 r \$0-out-6;
#X obj 147 466 r \$0-out-7;
#X obj 166 490 r \$0-out-8;
#X obj 33 72 t b b b b b b b b b;
#X obj 163 97 send \$0-get-9;
#X obj 33 281 send \$0-get-1;
#X obj 49 258 send \$0-get-2;
#X obj 65 235 send \$0-get-3;
#X obj 81 212 send \$0-get-4;
#X obj 98 189 send \$0-get-5;
#X obj 114 166 send \$0-get-6;
#X obj 130 143 send \$0-get-7;
#X obj 146 120 send \$0-get-8;
#X obj 517 135 bng 15 250 50 0 empty empty empty 17 7 0 10 -262144
-1 -1;
#X obj 560 42 r \$0-out-3;
#X obj 579 66 r \$0-out-4;
#X obj 598 90 r \$0-out-5;
#X text 538 134 <== force recalc of pattern duration;
#X connect 0 0 70 0;
#X connect 2 0 3 0;
#X connect 3 0 8 0;
#X connect 3 1 4 0;
#X connect 4 0 5 1;
#X connect 5 0 6 0;
#X connect 6 0 41 0;
#X connect 7 0 70 0;
#X connect 8 0 5 0;
#X connect 10 0 18 0;
#X connect 12 0 15 0;
#X connect 14 0 17 0;
#X connect 15 0 42 0;
#X connect 16 0 43 0;
#X connect 17 0 44 0;
#X connect 18 0 45 0;
#X connect 19 0 46 0;
#X connect 20 0 47 0;
#X connect 21 0 48 0;
#X connect 22 0 49 0;
#X connect 23 0 11 0;
#X connect 24 0 31 0;
#X connect 25 0 13 0;
#X connect 26 0 9 0;
#X connect 27 0 33 0;
#X connect 28 0 35 0;
#X connect 29 0 37 0;
#X connect 30 0 39 0;
#X connect 32 0 16 0;
#X connect 34 0 19 0;
#X connect 36 0 20 0;
#X connect 38 0 21 0;
#X connect 40 0 22 0;
#X connect 50 0 51 0;
#X connect 52 0 1 0;
#X connect 53 0 11 0;
#X connect 54 0 31 0;
#X connect 55 0 9 0;
#X connect 56 0 13 0;
#X connect 57 0 33 0;
#X connect 58 0 35 0;
#X connect 59 0 37 0;
#X connect 60 0 39 0;
#X connect 61 0 50 8;
#X connect 62 0 50 0;
#X connect 63 0 50 1;
#X connect 64 0 50 2;
#X connect 65 0 50 3;
#X connect 66 0 50 4;
#X connect 67 0 50 5;
#X connect 68 0 50 6;
#X connect 69 0 50 7;
#X connect 70 0 72 0;
#X connect 70 1 73 0;
#X connect 70 2 74 0;
#X connect 70 3 75 0;
#X connect 70 4 76 0;
#X connect 70 5 77 0;
#X connect 70 6 78 0;
#X connect 70 7 79 0;
#X connect 70 8 71 0;
#X connect 80 0 1 0;
#X connect 81 0 80 0;
#X connect 82 0 80 0;
#X connect 83 0 80 0;
