#N canvas 69 95 453 271 12;
#X floatatom 237 46 5 0 0 0 - - -;
#X obj 28 12 inlet;
#X obj 237 75 outlet;
#X obj 48 134 print;
#X obj 73 12 inlet;
#X obj 118 12 inlet;
#X obj 28 51 pack f f f;
#X msg 28 166 \; state-\$1-\$2-\$3-r get;
#X obj 237 15 receive toggle-state;
#X obj 48 108 spigot;
#X obj 87 82 tgl 15 0 empty empty empty 17 7 0 10 -262144 -1 -1 0 1
;
#X connect 0 0 2 0;
#X connect 1 0 6 0;
#X connect 4 0 6 1;
#X connect 5 0 6 2;
#X connect 6 0 7 0;
#X connect 6 0 9 0;
#X connect 8 0 0 0;
#X connect 9 0 3 0;
#X connect 10 0 9 1;
