#N canvas 14 57 1401 617 12;
#X obj 5 5 cnv 30 30 42 empty empty empty 20 12 0 14 -262144 -66577
0;
#X obj 8 23 bng 24 250 50 0 \$1-load-s \$1-load-r LOAD 0 -8 0 10 -257985
-1 -1;
#X obj 49 233 receive \$1-load-s;
#X obj 49 288 openpanel;
#X obj 28 521 textfile;
#X obj 28 552 send \$0-load-1;
#X obj 475 207 send \$1-level-1-r;
#X obj 508 180 send \$1-level-2-r;
#X obj 540 153 send \$1-level-3-r;
#X obj 572 127 send \$1-level-4-r;
#X obj 346 185 send \$1-tempo-r;
#X obj 378 156 send \$1-channel-r;
#X obj 410 128 send \$1-steps-r;
#X obj 443 98 send \$1-repeat-r;
#X obj 735 91 send \$0-load-2;
#X obj 714 343 send \$0-load-3;
#X obj 346 302 route instr-0 instr-1 instr-2 instr-3 instr-4 instr-5
instr-6 instr-7;
#X obj 346 22 receive \$0-load-1;
#X obj 346 274 receive \$0-load-2;
#X obj 668 372 list2symbol;
#X obj 622 422 list2symbol;
#X obj 576 473 list2symbol;
#X obj 530 525 list2symbol;
#X obj 484 372 list2symbol;
#X obj 438 422 list2symbol;
#X obj 392 473 list2symbol;
#X obj 346 525 list2symbol;
#X obj 883 154 unpack f f f;
#X obj 851 193 pack f f f f;
#X obj 851 92 t b l;
#X obj 851 122 float \$1;
#X msg 851 221 \; state-\$1-\$2-\$3-r set \$4;
#X obj 851 36 receive \$0-load-3;
#X obj 49 451 until;
#X msg 28 359 read \$1;
#X obj 49 396 t b b;
#X msg 81 422 rewind;
#X msg 107 493 clear;
#X obj 49 321 t b s;
#X obj 12 65 receive \$1-load-patch;
#X obj 35 177 send msg-log-r;
#X obj 35 129 symbol Loading;
#X obj 35 153 pack s s;
#X obj 35 105 t b s;
#X obj 116 391 send msg-log-r;
#X obj 116 343 symbol Loading;
#X obj 116 367 pack s s;
#X obj 116 319 t b s;
#X obj 346 50 route tempo channel steps repeat level-1 level-2 level-3
level-4 beat-len swing rnd-prob rnd-amt;
#X obj 702 156 send \$1-rnd-amt-r;
#X obj 670 182 send \$1-rnd-prob-r;
#X obj 638 209 send \$1-swing-r;
#X obj 605 236 send \$1-beat-len-r;
#X symbolatom 217 450 10 0 0 0 - - -;
#X obj 149 425 parse-file-path;
#X obj 346 549 send instr-\$1-0-r;
#X obj 392 498 send instr-\$1-1-r;
#X obj 438 447 send instr-\$1-2-r;
#X obj 484 396 send instr-\$1-3-r;
#X obj 530 549 send instr-\$1-4-r;
#X obj 576 498 send instr-\$1-5-r;
#X obj 622 447 send instr-\$1-6-r;
#X obj 668 396 send instr-\$1-7-r;
#X obj 49 261 get-sub-dir data;
#X obj 12 205 prepend-dir data;
#X obj 850 274 receive \$0-load-4;
#X obj 967 92 send \$0-load-4;
#X obj 850 302 route mute-0 mute-1 mute-2 mute-3 mute-4 mute-5 mute-6
mute-7;
#X obj 1225 343 print load-state Error;
#X floatatom 859 343 2 0 0 0 - - -;
#X floatatom 908 343 2 0 0 0 - - -;
#X floatatom 956 343 2 0 0 0 - - -;
#X floatatom 1005 343 2 0 0 0 - - -;
#X floatatom 1048 343 2 0 0 0 - - -;
#X floatatom 1097 343 2 0 0 0 - - -;
#X floatatom 1145 343 2 0 0 0 - - -;
#X floatatom 1194 343 2 0 0 0 - - -;
#X obj 850 527 set-mute \$1 0;
#X obj 896 505 set-mute \$1 1;
#X obj 943 483 set-mute \$1 2;
#X obj 990 461 set-mute \$1 3;
#X obj 1037 439 set-mute \$1 4;
#X obj 1084 417 set-mute \$1 5;
#X obj 1131 395 set-mute \$1 6;
#X obj 1178 373 set-mute \$1 7;
#X obj 217 475 send \$1-pattern-r;
#X obj 108 153 send \$1-pattern-r;
#X obj 990 162 send drumkit-\$1-r;
#X obj 990 138 list2symbol;
#X obj 851 64 route tgl drumkit;
#X connect 2 0 63 0;
#X connect 3 0 38 0;
#X connect 3 0 47 0;
#X connect 4 0 5 0;
#X connect 4 1 33 1;
#X connect 4 1 37 0;
#X connect 16 0 26 0;
#X connect 16 1 25 0;
#X connect 16 2 24 0;
#X connect 16 3 23 0;
#X connect 16 4 22 0;
#X connect 16 5 21 0;
#X connect 16 6 20 0;
#X connect 16 7 19 0;
#X connect 16 8 15 0;
#X connect 17 0 48 0;
#X connect 18 0 16 0;
#X connect 19 0 62 0;
#X connect 20 0 61 0;
#X connect 21 0 60 0;
#X connect 22 0 59 0;
#X connect 23 0 58 0;
#X connect 24 0 57 0;
#X connect 25 0 56 0;
#X connect 26 0 55 0;
#X connect 27 0 28 1;
#X connect 27 1 28 2;
#X connect 27 2 28 3;
#X connect 28 0 31 0;
#X connect 29 0 30 0;
#X connect 29 1 27 0;
#X connect 30 0 28 0;
#X connect 32 0 89 0;
#X connect 33 0 4 0;
#X connect 34 0 4 0;
#X connect 35 0 33 0;
#X connect 35 1 36 0;
#X connect 36 0 4 0;
#X connect 37 0 4 0;
#X connect 38 0 35 0;
#X connect 38 1 34 0;
#X connect 39 0 43 0;
#X connect 39 0 64 0;
#X connect 41 0 42 0;
#X connect 42 0 40 0;
#X connect 43 0 41 0;
#X connect 43 1 42 1;
#X connect 43 1 86 0;
#X connect 45 0 46 0;
#X connect 46 0 44 0;
#X connect 47 0 45 0;
#X connect 47 1 46 1;
#X connect 47 1 54 0;
#X connect 48 0 10 0;
#X connect 48 1 11 0;
#X connect 48 2 12 0;
#X connect 48 3 13 0;
#X connect 48 4 6 0;
#X connect 48 5 7 0;
#X connect 48 6 8 0;
#X connect 48 7 9 0;
#X connect 48 8 52 0;
#X connect 48 9 51 0;
#X connect 48 10 50 0;
#X connect 48 11 49 0;
#X connect 48 12 14 0;
#X connect 53 0 85 0;
#X connect 54 2 53 0;
#X connect 63 0 3 0;
#X connect 64 0 38 0;
#X connect 65 0 67 0;
#X connect 67 0 69 0;
#X connect 67 0 77 0;
#X connect 67 1 70 0;
#X connect 67 1 78 0;
#X connect 67 2 71 0;
#X connect 67 2 79 0;
#X connect 67 3 72 0;
#X connect 67 3 80 0;
#X connect 67 4 73 0;
#X connect 67 4 81 0;
#X connect 67 5 74 0;
#X connect 67 5 82 0;
#X connect 67 6 75 0;
#X connect 67 6 83 0;
#X connect 67 7 76 0;
#X connect 67 7 84 0;
#X connect 67 8 68 0;
#X connect 88 0 87 0;
#X connect 89 0 29 0;
#X connect 89 1 88 0;
#X connect 89 2 66 0;
#X coords 0 -1 1 1 30 42 2 5 5;
