#N canvas 771 61 547 589 12;
#X obj 43 527 outlet;
#X obj 118 153 get-parms \$1;
#X floatatom 118 255 3 0 0 1 VEL-1 - -;
#X obj 164 524 gen-note \$1;
#X obj 174 22 inlet step;
#X floatatom 199 255 3 0 0 1 VEL-2 - -;
#X obj 118 177 t l l l l l;
#X floatatom 281 255 3 0 0 1 VEL-3 - -;
#X floatatom 362 255 3 0 0 1 VEL-4 - -;
#X floatatom 443 255 3 0 0 1 CHANNEL - -;
#X obj 118 230 get-parm 6;
#X obj 199 230 get-parm 7;
#X obj 281 230 get-parm 8;
#X obj 362 230 get-parm 9;
#X obj 443 230 get-parm 2;
#X obj 43 22 inlet instrument;
#X obj 83 97 float \$1;
#X obj 83 130 get-toggle;
#X obj 83 309 select 1 2 3 4;
#X floatatom 63 464 3 0 0 0 - - -;
#X obj 154 338 t b b;
#X obj 63 489 spigot;
#X obj 102 466 tgl 15 0 empty empty empty 17 7 0 10 -262144 -1 -1 0
1;
#X obj 130 362 t b b;
#X obj 106 386 t b b;
#X obj 83 410 t b b;
#X obj 43 65 t b f b b b;
#X obj 135 440 f 0;
#X connect 1 0 6 0;
#X connect 2 0 3 1;
#X connect 4 0 17 2;
#X connect 5 0 3 1;
#X connect 6 0 10 0;
#X connect 6 1 11 0;
#X connect 6 2 12 0;
#X connect 6 3 13 0;
#X connect 6 4 14 0;
#X connect 7 0 3 1;
#X connect 8 0 3 1;
#X connect 9 0 3 2;
#X connect 10 0 2 0;
#X connect 11 0 5 0;
#X connect 12 0 7 0;
#X connect 13 0 8 0;
#X connect 14 0 9 0;
#X connect 15 0 17 1;
#X connect 15 0 26 0;
#X connect 16 0 17 0;
#X connect 17 0 18 0;
#X connect 18 0 25 0;
#X connect 18 1 24 0;
#X connect 18 2 23 0;
#X connect 18 3 20 0;
#X connect 19 0 21 0;
#X connect 20 0 22 0;
#X connect 20 1 8 0;
#X connect 21 0 3 0;
#X connect 22 0 21 1;
#X connect 23 0 22 0;
#X connect 23 1 7 0;
#X connect 24 0 22 0;
#X connect 24 1 5 0;
#X connect 25 0 22 0;
#X connect 25 1 2 0;
#X connect 26 0 0 0;
#X connect 26 1 19 0;
#X connect 26 2 16 0;
#X connect 26 3 1 0;
#X connect 26 4 27 0;
#X connect 27 0 22 0;
