#N canvas 744 42 335 325 12;
#X floatatom 30 136 3 0 0 3 Chan - -;
#X floatatom 66 136 3 0 0 3 Note - -;
#X floatatom 101 136 3 0 0 3 Vel - -;
#X obj 30 61 t f b b;
#X obj 66 108 f \$2;
#X obj 30 108 f \$1;
#X obj 30 24 inlet;
#X obj 33 240 cyclone/midiformat;
#X obj 33 214 pack f f;
#X obj 33 270 send song-record;
#X connect 0 0 7 6;
#X connect 1 0 8 0;
#X connect 2 0 8 1;
#X connect 3 0 4 0;
#X connect 3 1 2 0;
#X connect 3 2 5 0;
#X connect 4 0 1 0;
#X connect 5 0 0 0;
#X connect 6 0 3 0;
#X connect 7 0 9 0;
#X connect 8 0 7 0;
