#N canvas 777 326 450 170 12;
#X obj 224 23 loadbang;
#X obj 224 83 send \$0-name-r;
#X obj 198 26 bng 15 250 50 0 empty empty empty 17 7 0 10 -262144 -1
-1;
#X obj 224 53 symbol \$1;
#X obj 5 5 cnv 18 157 18 empty empty empty 20 12 0 14 -262130 -66577
0;
#X symbolatom 5 5 22 0 0 0 - #2-name-r #2-name-s;
#X obj 62 105 print pattern-name;
#X obj 62 73 float \$2;
#X connect 0 0 3 0;
#X connect 2 0 3 0;
#X connect 3 0 1 0;
#X connect 7 0 6 0;
#X coords 0 -1 1 1 157 18 2 5 5;
