#N canvas 143 385 776 388 12;
#X obj 49 169 pfor 0 9 1;
#X obj 33 22 bng 15 250 50 0 empty empty empty 17 7 0 10 -262144 -1
-1;
#X msg 68 23 start;
#X msg 90 50 stop;
#X floatatom 107 79 5 0 0 0 - - -;
#X obj 16 329 bng 15 250 50 0 empty empty empty 17 7 0 10 -262144 -1
-1;
#X obj 134 206 bng 15 250 50 0 empty empty empty 17 7 0 10 -262144
-1 -1;
#X text 155 204 <-- Done!;
#X floatatom 121 103 5 0 0 0 - - -;
#X floatatom 141 127 5 0 0 0 - - -;
#X text 151 79 <-- Initial value;
#X text 164 102 <-- Final value;
#X text 184 127 <-- Increment;
#X obj 49 238 bng 15 250 50 0 empty empty empty 17 7 0 10 -262144 -1
-1;
#X obj 49 291 delay;
#X obj 81 239 loadbang;
#X obj 68 207 print;
#X msg 81 265 1000;
#X text 94 290 <-- Wait one second;
#X text 37 327 <-- Next iteration;
#X obj 328 25 pfor;
#X text 368 25 - 'For' loop;
#X text 117 23 <-- Initialize loop;
#X text 131 50 <-- Stop loop;
#X text 324 262 Copyright (c) 2021 David Kettle.;
#X text 326 59 Creation Arguments: \; \; 1 Initial value \; 2 Final
value \; 3 Increment (may be negative or non-integer), f 61;
#X text 324 155 The 'pfor' object executes a loop from the starting
value to the ending value (inclusive) \, incrementing by the value
specified. After each iteration \, it waits until receiving another
'bang' on its first inlet. WARNING: If increment value is zero \, it
will loop forever., f 61;
#X connect 0 0 13 0;
#X connect 0 0 16 0;
#X connect 0 1 6 0;
#X connect 1 0 0 0;
#X connect 2 0 0 0;
#X connect 3 0 0 0;
#X connect 4 0 0 0;
#X connect 5 0 0 0;
#X connect 8 0 0 1;
#X connect 9 0 0 2;
#X connect 13 0 14 0;
#X connect 14 0 5 0;
#X connect 15 0 17 0;
#X connect 17 0 14 1;
