#N canvas 808 184 415 325 12;
#X msg 109 94 clear;
#X obj 63 249 savepanel;
#X msg 63 273 write \$1;
#X obj 109 118 send \$0-qlist;
#X obj 63 297 send \$0-qlist;
#X obj 258 23 receive \$0-qlist;
#X obj 258 52 qlist;
#X obj 63 67 t b b b;
#N canvas 601 0 1013 728 add-data-to-list 0;
#X obj 10 22 inlet;
#X obj 127 125 send \$0-qlist;
#X obj 301 123 send \$0-qlist;
#X obj 474 123 send \$0-qlist;
#X obj 648 123 send \$0-qlist;
#X obj 10 56 send \$0-add;
#X obj 127 263 send \$0-qlist;
#X obj 301 263 send \$0-qlist;
#X obj 474 263 send \$0-qlist;
#X obj 648 263 send \$0-qlist;
#X obj 127 26 receive \$0-add;
#X obj 301 26 receive \$0-add;
#X obj 473 26 receive \$0-add;
#X obj 648 26 receive \$0-add;
#X obj 127 162 receive \$0-add;
#X obj 301 162 receive \$0-add;
#X obj 473 162 receive \$0-add;
#X obj 648 162 receive \$0-add;
#X obj 127 403 send \$0-qlist;
#X obj 127 303 receive \$0-add;
#X obj 127 50 send \$1-tempo-r;
#X obj 127 74 receive \$1-tempo-s;
#X obj 300 50 send \$1-channel-r;
#X obj 301 74 receive \$1-channel-s;
#X obj 473 50 send \$1-steps-r;
#X obj 474 74 receive \$1-steps-s;
#X obj 648 50 send \$1-repeat-r;
#X obj 648 74 receive \$1-repeat-s;
#X obj 127 186 send \$1-level-1-r;
#X obj 127 211 receive \$1-level-1-s;
#X obj 300 186 send \$1-level-2-r;
#X obj 301 211 receive \$1-level-2-s;
#X obj 473 186 send \$1-level-3-r;
#X obj 474 211 receive \$1-level-3-s;
#X obj 648 186 send \$1-level-4-r;
#X obj 648 211 receive \$1-level-4-s;
#X obj 301 403 send \$0-qlist;
#X obj 301 303 receive \$0-add;
#X obj 475 403 send \$0-qlist;
#X obj 475 303 receive \$0-add;
#X obj 649 403 send \$0-qlist;
#X obj 649 303 receive \$0-add;
#X obj 865 392 send \$0-qlist;
#X obj 865 25 receive \$0-add;
#X obj 865 240 f \$1;
#X obj 904 240 f 0;
#X obj 938 241 f 0;
#X obj 865 195 t b b f;
#X obj 865 279 get-toggle;
#X obj 865 321 pack f f f;
#X obj 904 123 float;
#X obj 834 25 bng 15 250 50 0 empty empty empty 17 7 0 10 -262144 -1
-1;
#X msg 127 100 add tempo \$1;
#X msg 301 100 add channel \$1;
#X msg 474 100 add steps \$1;
#X msg 648 100 add repeat \$1;
#X msg 127 238 add level-1 \$1;
#X msg 301 237 add level-2 \$1;
#X msg 474 237 add level-3 \$1;
#X msg 648 237 add level-4 \$1;
#X msg 865 358 add tgl \$2 \$3 \$1;
#X obj 127 545 send \$0-qlist;
#X obj 127 445 receive \$0-add;
#X obj 301 545 send \$0-qlist;
#X obj 301 445 receive \$0-add;
#X obj 475 545 send \$0-qlist;
#X obj 475 445 receive \$0-add;
#X obj 649 545 send \$0-qlist;
#X obj 649 445 receive \$0-add;
#X obj 127 683 send \$0-qlist;
#X obj 127 583 receive \$0-add;
#X obj 301 683 send \$0-qlist;
#X obj 301 583 receive \$0-add;
#X obj 475 683 send \$0-qlist;
#X obj 475 583 receive \$0-add;
#X obj 649 683 send \$0-qlist;
#X obj 649 583 receive \$0-add;
#X msg 127 520 add instr-0 \$1;
#X msg 301 519 add instr-1 \$1;
#X msg 475 519 add instr-2 \$1;
#X msg 649 519 add instr-3 \$1;
#X msg 127 658 add instr-4 \$1;
#X msg 301 657 add instr-5 \$1;
#X msg 475 657 add instr-6 \$1;
#X msg 649 657 add instr-7 \$1;
#X obj 127 327 send \$1-beat-len-r;
#X obj 127 351 receive \$1-beat-len-s;
#X msg 127 378 add beat-len \$1;
#X obj 301 327 send \$1-swing-r;
#X obj 301 351 receive \$1-swing-s;
#X msg 301 377 add swing \$1;
#X obj 475 327 send \$1-rnd-prob-r;
#X obj 475 351 receive \$1-rnd-prob-s;
#X msg 475 377 add rnd-prob \$1;
#X obj 649 327 send \$1-rnd-amt-r;
#X obj 649 351 receive \$1-rnd-amt-s;
#X msg 649 377 add rnd-amt \$1;
#X obj 865 58 for++ 0 7;
#X obj 865 91 t b f;
#X obj 865 157 for++ 0 31;
#X obj 127 469 send instr-\$1-0-r;
#X obj 127 493 receive instr-\$1-0-s;
#X obj 301 469 send instr-\$1-1-r;
#X obj 301 493 receive instr-\$1-1-s;
#X obj 475 493 receive instr-\$1-2-s;
#X obj 475 469 send instr-\$1-2-r;
#X obj 649 469 send instr-\$1-3-r;
#X obj 649 493 receive instr-\$1-3-s;
#X obj 127 607 send instr-\$1-4-r;
#X obj 127 631 receive instr-\$1-4-s;
#X obj 301 607 send instr-\$1-5-r;
#X obj 301 631 receive instr-\$1-5-s;
#X obj 475 607 send instr-\$1-6-r;
#X obj 475 631 receive instr-\$1-6-s;
#X obj 649 607 send instr-\$1-7-r;
#X obj 649 631 receive instr-\$1-7-s;
#X connect 0 0 5 0;
#X connect 10 0 20 0;
#X connect 11 0 22 0;
#X connect 12 0 24 0;
#X connect 13 0 26 0;
#X connect 14 0 28 0;
#X connect 15 0 30 0;
#X connect 16 0 32 0;
#X connect 17 0 34 0;
#X connect 19 0 85 0;
#X connect 21 0 52 0;
#X connect 23 0 53 0;
#X connect 25 0 54 0;
#X connect 27 0 55 0;
#X connect 29 0 56 0;
#X connect 31 0 57 0;
#X connect 33 0 58 0;
#X connect 35 0 59 0;
#X connect 37 0 88 0;
#X connect 39 0 91 0;
#X connect 41 0 94 0;
#X connect 43 0 97 0;
#X connect 44 0 48 0;
#X connect 45 0 48 1;
#X connect 45 0 49 1;
#X connect 46 0 48 2;
#X connect 46 0 49 2;
#X connect 47 0 44 0;
#X connect 47 1 45 0;
#X connect 47 2 46 0;
#X connect 48 0 49 0;
#X connect 49 0 60 0;
#X connect 50 0 45 0;
#X connect 51 0 97 0;
#X connect 52 0 1 0;
#X connect 53 0 2 0;
#X connect 54 0 3 0;
#X connect 55 0 4 0;
#X connect 56 0 6 0;
#X connect 57 0 7 0;
#X connect 58 0 8 0;
#X connect 59 0 9 0;
#X connect 60 0 42 0;
#X connect 62 0 100 0;
#X connect 64 0 102 0;
#X connect 66 0 105 0;
#X connect 68 0 106 0;
#X connect 70 0 108 0;
#X connect 72 0 110 0;
#X connect 74 0 112 0;
#X connect 76 0 114 0;
#X connect 77 0 61 0;
#X connect 78 0 63 0;
#X connect 79 0 65 0;
#X connect 80 0 67 0;
#X connect 81 0 69 0;
#X connect 82 0 71 0;
#X connect 83 0 73 0;
#X connect 84 0 75 0;
#X connect 86 0 87 0;
#X connect 87 0 18 0;
#X connect 89 0 90 0;
#X connect 90 0 36 0;
#X connect 92 0 93 0;
#X connect 93 0 38 0;
#X connect 95 0 96 0;
#X connect 96 0 40 0;
#X connect 97 0 98 0;
#X connect 98 0 99 0;
#X connect 98 1 50 0;
#X connect 99 0 47 0;
#X connect 101 0 77 0;
#X connect 103 0 78 0;
#X connect 104 0 79 0;
#X connect 107 0 80 0;
#X connect 109 0 81 0;
#X connect 111 0 82 0;
#X connect 113 0 83 0;
#X connect 115 0 84 0;
#X restore 86 159 pd add-data-to-list;
#X obj 5 5 cnv 30 30 42 empty empty empty 20 12 0 14 -262144 -66577
0;
#X obj 8 23 bng 24 250 50 0 \$1-save-s \$1-save-r SAVE 0 -8 0 10 -257985
-1 -1;
#X obj 63 23 receive \$1-save-s;
#X text 38 196 Get full path to sub-directory;
#X obj 63 217 get-sub-dir ../data;
#X connect 0 0 3 0;
#X connect 1 0 2 0;
#X connect 2 0 4 0;
#X connect 5 0 6 0;
#X connect 7 0 13 0;
#X connect 7 1 8 0;
#X connect 7 2 0 0;
#X connect 11 0 7 0;
#X connect 13 0 1 0;
#X coords 0 -1 1 1 30 42 2 5 5;
