#N canvas 32 12 671 446 12;
#X obj 289 27 loadbang;
#X obj 257 28 bng 15 250 50 0 empty empty empty 17 7 0 10 -262144 -1
-1;
#X msg 599 122 clear;
#X msg 389 122 read data/Percussion.txt cr;
#X obj 289 185 textfile;
#X msg 332 122 rewind;
#X msg 289 122 bang;
#X obj 364 220 tgl 15 0 empty empty empty 17 7 0 10 -262144 -1 -1 0
1;
#X obj 302 246 spigot;
#X msg 302 217 bang;
#X msg 289 317 add \$1;
#X obj 289 358 tof/pmenu 1 1 black white red;
#X msg 428 317 bang;
#X obj 364 185 float 1;
#X obj 289 70 t b b b b b;
#X obj 428 285 receive \$0-display-menu-s;
#X obj 20 20 cnv 15 204 24 empty empty empty 20 12 0 14 -262130 -66577
0;
#X symbolatom 44 23 25 0 0 0 - instr-#1-#2-r instr-#1-#2-s;
#X obj 23 23 bng 18 250 50 0 \$0-display-menu-s \$0-noop-r empty 17
7 0 10 -257985 -1 -1;
#X obj 289 284 cyclone/tosymbol;
#X obj 408 394 print;
#X obj 489 392 send instr-\$1-\$2-r;
#X obj 52 173 send instr-\$1-\$2-r;
#X obj 52 141 symbol 00_Unassigned;
#X connect 0 0 14 0;
#X connect 0 0 23 0;
#X connect 1 0 14 0;
#X connect 2 0 4 0;
#X connect 2 0 11 0;
#X connect 3 0 4 0;
#X connect 4 0 9 0;
#X connect 4 0 19 0;
#X connect 4 1 7 0;
#X connect 5 0 4 0;
#X connect 6 0 4 0;
#X connect 7 0 8 1;
#X connect 8 0 4 0;
#X connect 9 0 8 0;
#X connect 10 0 11 0;
#X connect 11 1 20 0;
#X connect 11 1 21 0;
#X connect 12 0 11 0;
#X connect 13 0 7 0;
#X connect 14 0 6 0;
#X connect 14 1 5 0;
#X connect 14 2 3 0;
#X connect 14 3 2 0;
#X connect 14 4 13 0;
#X connect 15 0 12 0;
#X connect 19 0 10 0;
#X connect 23 0 22 0;
#X coords 0 -1 1 1 204 24 2 20 20;
