#N canvas 911 416 449 378 12;
#X obj 20 302 outlet;
#X obj 20 279 bng 15 250 50 0 empty empty empty 17 7 0 10 -262144 -1
-1;
#X obj 130 236 noteout;
#X obj 98 335 print send-note;
#X obj 98 311 spigot;
#X obj 137 276 tgl 15 0 empty empty empty 17 7 0 10 -262144 -1 -1 0
1;
#X text 155 274 <== debug;
#X obj 152 144 f;
#X obj 186 144 f;
#X obj 119 144 f;
#X floatatom 119 170 3 0 0 3 Note - -;
#X floatatom 152 170 3 0 0 3 Vel - -;
#X floatatom 186 170 3 0 0 3 Chan - -;
#X obj 119 72 unpack f f f;
#X obj 20 20 inlet;
#X text 64 19 <== (note vel chan);
#X obj 119 108 t f b b;
#X obj 241 264 cyclone/midiformat;
#X obj 241 238 pack f f;
#X obj 241 295 send song-record;
#X connect 1 0 0 0;
#X connect 4 0 3 0;
#X connect 5 0 4 1;
#X connect 7 0 11 0;
#X connect 8 0 12 0;
#X connect 9 0 10 0;
#X connect 10 0 2 0;
#X connect 10 0 18 0;
#X connect 11 0 2 1;
#X connect 11 0 18 1;
#X connect 12 0 2 2;
#X connect 12 0 17 6;
#X connect 13 0 16 0;
#X connect 13 1 7 1;
#X connect 13 2 8 1;
#X connect 14 0 1 0;
#X connect 14 0 13 0;
#X connect 14 0 4 0;
#X connect 16 0 9 0;
#X connect 16 1 7 0;
#X connect 16 2 8 0;
#X connect 17 0 19 0;
#X connect 18 0 17 0;
