#N canvas 182 299 516 452 12;
#X obj 20 302 outlet;
#X obj 20 279 bng 15 250 50 0 empty empty empty 17 7 0 10 -262144 -1
-1;
#X obj 219 301 noteout;
#X obj 60 153 print send-note;
#X obj 60 129 spigot;
#X obj 99 94 tgl 15 0 empty empty empty 17 7 0 10 -262144 -1 -1 0 1
;
#X obj 275 209 f;
#X obj 208 209 f;
#X floatatom 208 235 3 0 0 3 Note - -;
#X floatatom 241 235 3 0 0 3 Vel - -;
#X floatatom 275 235 3 0 0 3 Chan - -;
#X obj 208 126 unpack f f f;
#X obj 20 20 inlet;
#X text 64 19 <== (note vel chan);
#X obj 323 371 cyclone/midiformat;
#X obj 323 345 pack f f;
#X obj 323 402 send song-record;
#X obj 401 290 noteout;
#X obj 423 198 f;
#X obj 457 198 f;
#X obj 390 198 f;
#X floatatom 390 224 3 0 0 3 Note - -;
#X floatatom 423 224 3 0 0 3 Vel - -;
#X floatatom 457 224 3 0 0 3 Chan - -;
#X obj 390 126 unpack f f f;
#X obj 390 156 t f b b;
#X obj 208 61 t l l;
#X text 215 103 Note Off:;
#X text 396 103 Note On:;
#X obj 208 183 delay 5000;
#X obj 208 155 t f f b b;
#X connect 1 0 0 0;
#X connect 4 0 3 0;
#X connect 5 0 4 1;
#X connect 6 0 10 0;
#X connect 7 0 8 0;
#X connect 8 0 2 0;
#X connect 8 0 15 0;
#X connect 9 0 2 1;
#X connect 9 0 15 1;
#X connect 10 0 2 2;
#X connect 10 0 14 6;
#X connect 11 0 30 0;
#X connect 11 2 6 1;
#X connect 12 0 1 0;
#X connect 12 0 4 0;
#X connect 12 0 26 0;
#X connect 14 0 16 0;
#X connect 15 0 14 0;
#X connect 18 0 22 0;
#X connect 19 0 23 0;
#X connect 20 0 21 0;
#X connect 21 0 17 0;
#X connect 21 0 15 0;
#X connect 22 0 17 1;
#X connect 22 0 15 1;
#X connect 23 0 17 2;
#X connect 23 0 14 6;
#X connect 24 0 25 0;
#X connect 24 1 18 1;
#X connect 24 2 19 1;
#X connect 25 0 20 0;
#X connect 25 1 18 0;
#X connect 25 2 19 0;
#X connect 26 0 11 0;
#X connect 26 1 24 0;
#X connect 29 0 7 0;
#X connect 30 0 7 1;
#X connect 30 0 29 0;
#X connect 30 2 9 0;
#X connect 30 3 6 0;
