#N canvas 40 170 310 253 12;
#X msg 29 185 \; mute-\$1-\$2 set \$3;
#X obj 29 148 pack f f f;
#X obj 29 92 f \$1;
#X obj 29 62 t b b f;
#X obj 52 115 f \$2;
#X obj 29 20 inlet;
#X connect 1 0 0 0;
#X connect 2 0 1 0;
#X connect 3 0 2 0;
#X connect 3 1 4 0;
#X connect 3 2 1 2;
#X connect 4 0 1 1;
#X connect 5 0 3 0;
