#N canvas 41 190 658 454 12;
#X floatatom 400 106 5 0 0 1 - - -;
#X obj 112 81 float 1;
#X obj 112 147 +;
#X obj 112 55 bng 15 250 50 0 empty empty empty 17 7 0 10 -262144 -1
-1;
#X obj 571 30 loadbang;
#X floatatom 571 69 5 0 0 1 - - -;
#X obj 544 30 bng 15 250 50 0 empty empty empty 17 7 0 10 -262144 -1
-1;
#X obj 356 53 route get set;
#X obj 5 5 cnv 24 24 24 empty empty empty 20 12 0 14 -228856 -66577
0;
#X obj 5 5 tgl 24 0 mute-\$1-\$2-s mute-\$1-\$2-r empty 17 7 0 10 -262144
-262144 -262144 1 1;
#X floatatom 356 183 5 0 0 1 - - -;
#X obj 356 78 bng 15 250 50 0 empty empty empty 17 7 0 10 -262144 -1
-1;
#X obj 327 57 bng 15 250 50 0 empty empty empty 17 7 0 10 -262144 -1
-1;
#X obj 410 78 bng 15 250 50 0 empty empty empty 17 7 0 10 -262144 -1
-1;
#X obj 112 178 % 2;
#X obj 400 142 % 2;
#X obj 112 224 route 0 1;
#X text 444 106 <== ON/OFF;
#X text 221 301 red;
#X msg 218 324 color 13 13 0;
#X obj 361 360 pack f f f;
#X obj 428 330 f 1;
#X obj 394 330 f \$2;
#X obj 361 330 f \$1;
#X obj 361 299 t b b b;
#X obj 361 273 bng 15 250 50 0 empty empty empty 17 7 0 10 -262144
-1 -1;
#X msg 112 324 color 0 0 0;
#X text 118 300 white;
#X obj 112 24 receive mute-\$1-\$2-s;
#X obj 112 406 send mute-\$1-\$2-r;
#X msg 361 387 \; mute-\$1-\$2-r \$3;
#X obj 356 27 receive state-\$1-\$2-r;
#X obj 356 217 send mute-state;
#X connect 0 0 2 1;
#X connect 0 0 15 0;
#X connect 1 0 2 0;
#X connect 2 0 14 0;
#X connect 3 0 1 0;
#X connect 4 0 5 0;
#X connect 5 0 0 0;
#X connect 6 0 5 0;
#X connect 7 0 11 0;
#X connect 7 1 0 0;
#X connect 7 1 13 0;
#X connect 10 0 32 0;
#X connect 11 0 10 0;
#X connect 14 0 0 0;
#X connect 14 0 16 0;
#X connect 15 0 10 0;
#X connect 15 0 16 0;
#X connect 16 0 26 0;
#X connect 16 1 19 0;
#X connect 19 0 29 0;
#X connect 20 0 30 0;
#X connect 21 0 20 2;
#X connect 22 0 20 1;
#X connect 23 0 20 0;
#X connect 24 0 23 0;
#X connect 24 1 22 0;
#X connect 24 2 21 0;
#X connect 25 0 24 0;
#X connect 26 0 29 0;
#X connect 28 0 3 0;
#X connect 31 0 7 0;
#X connect 31 0 12 0;
#X coords 0 -1 1 1 24 24 2 5 5;
