#N canvas 827 330 307 272 12;
#X obj 110 129 symbol song;
#X obj 78 93 t b b;
#X obj 78 191 pack s s;
#X obj 5 5 cnv 30 30 45 empty empty empty 20 12 0 14 -204800 -66577
0;
#X obj 5 20 bng 30 250 50 0 \$0-bang-s \$0-bang-r Stop 4 -9 0 10 -258113
-1 -1;
#X obj 78 20 r \$0-bang-s;
#X obj 78 157 symbol Stopping;
#X obj 78 224 send msg-log-r;
#X obj 101 58 send song-stop;
#X obj 53 53 bng 15 250 50 0 empty empty empty 17 7 0 10 -262144 -1
-1;
#X connect 0 0 2 1;
#X connect 1 0 6 0;
#X connect 1 1 0 0;
#X connect 2 0 7 0;
#X connect 5 0 1 0;
#X connect 5 0 8 0;
#X connect 5 0 9 0;
#X connect 6 0 2 0;
#X coords 0 -1 1 1 30 45 2 5 5;
