#N canvas 93 242 311 167 12;
#X obj 5 5 cnv 34 34 34 empty empty empty 20 12 0 14 -261234 -66577
0;
#X obj 89 16 receive start-\$1-s;
#X obj 5 5 bng 34 250 50 0 start-\$1-s start-\$1-r empty 17 7 0 10
-262144 -1 -1;
#X obj 22 22 ggee/image data/image2.gif;
#X obj 89 54 bng 15 250 50 0 empty empty empty 17 7 0 10 -262144 -1
-1;
#X obj 89 118 send run-state-\$1-r;
#X obj 89 86 float 1;
#X connect 1 0 4 0;
#X connect 4 0 6 0;
#X connect 6 0 5 0;
#X coords 0 -1 1 1 34 34 2 5 5;
