#N canvas 458 408 297 179 12;
#X obj 5 5 cnv 34 34 34 empty empty empty 20 12 0 14 -233017 -66577
0;
#X obj 5 5 bng 34 250 50 0 stop-\$1-s stop-\$1-r empty 17 7 0 10 -262144
-1 -1;
#X obj 22 22 ggee/image data/image3.gif;
#X obj 80 19 receive stop-\$1-s;
#X obj 80 58 bng 15 250 50 0 empty empty empty 17 7 0 10 -262144 -1
-1;
#X obj 80 90 float 0;
#X obj 80 122 send run-state-\$1-r;
#X connect 3 0 4 0;
#X connect 4 0 5 0;
#X connect 5 0 6 0;
#X coords 0 -1 1 1 34 34 2 5 5;
