#N canvas 995 216 310 194 12;
#X obj 80 19 receive stop-\$1-s;
#X obj 80 80 bng 15 250 50 0 empty empty empty 17 7 0 10 -262144 -1
-1;
#X obj 80 112 float 0;
#X obj 80 144 send run-state-\$1-r;
#X obj 96 49 receive song-stop;
#X obj 5 5 else/pic 0 data/Image3.gif stop-\$1-s stop-\$1-r 0 0;
#X connect 0 0 1 0;
#X connect 1 0 2 0;
#X connect 2 0 3 0;
#X connect 4 0 1 0;
#X coords 0 -1 1 1 35 35 2 5 5;
