#N canvas 285 147 310 194 12;
#X obj 5 5 bng 34 250 50 0 stop-\$1-s stop-\$1-r empty 17 7 0 10 -262144
-1 -1;
#X obj 22 22 ggee/image data/image3.gif;
#X obj 80 19 receive stop-\$1-s;
#X obj 80 80 bng 15 250 50 0 empty empty empty 17 7 0 10 -262144 -1
-1;
#X obj 80 112 float 0;
#X obj 80 144 send run-state-\$1-r;
#X obj 96 49 receive song-stop;
#X connect 2 0 3 0;
#X connect 3 0 4 0;
#X connect 4 0 5 0;
#X connect 6 0 3 0;
#X coords 0 -1 1 1 34 34 2 5 5;
