#N canvas 571 35 733 519 12;
#X declare -lib tof;
#X declare -lib cyclone;
#X declare -lib ggee;
#X declare -lib zexy;
#X declare -lib iemlib;
#X declare -lib easyflow;
#X declare -path lib;
#X obj 10 8 cnv 15 200 500 empty empty empty 20 12 0 14 -204800 -66577
0;
#N canvas 105 213 382 245 libraries 0;
#X obj 29 52 declare -lib tof;
#X obj 29 79 declare -lib cyclone;
#X text 28 22 Dependencies:;
#X obj 29 106 declare -lib ggee;
#X obj 29 133 declare -lib zexy;
#X obj 29 160 declare -lib iemlib;
#X obj 29 187 declare -lib easyflow;
#X obj 210 52 declare -path lib;
#X restore 28 423 pd libraries;
#X text 28 371 Do not delete:;
#X obj 96 124 song-start;
#X obj 147 133 song-end;
#X obj 32 124 song-stop;
#X obj 222 8 cnv 15 500 500 empty empty empty 20 12 0 14 -204800 -66577
0;
#X text 34 98 Copy and paste:;
#X obj 34 193 pattern Empty;
#X obj 34 233 pwait;
#X obj 34 273 psync;
#X obj 34 313 bng 15 250 50 0 empty empty empty 17 7 0 10 -262130 -258113
-1;
#X obj 96 233 pfor;
#X text 31 21 Drum Sequencer v0.22 \; Copyright (c) 2021 \; David Kettle
;
#X obj 29 444 song-record;
#X text 58 464 <== save MIDI file;
#X obj 244 26 song-start;
#X obj 244 115 song-end;
#N canvas 0 50 450 300 msg-log 0;
#X obj 27 18 receive msg-log-r;
#X obj 59 87 unpack s s;
#X obj 27 242 print Log;
#X obj 27 160 time XXXXXXXXXXX;
#X obj 27 209 cyclone/sprintf [%02d:%02d:%02d.%03d] %s %s;
#X obj 27 56 t b a;
#X connect 0 0 5 0;
#X connect 1 0 4 4;
#X connect 1 1 4 5;
#X connect 3 0 4 0;
#X connect 3 1 4 1;
#X connect 3 2 4 2;
#X connect 3 3 4 3;
#X connect 4 0 2 0;
#X connect 5 0 3 0;
#X connect 5 1 1 0;
#X restore 28 396 pd msg-log;
#X obj 244 77 pattern test;
#X connect 16 0 19 0;
#X connect 19 0 17 0;
