#N canvas 29 362 1381 428 12;
#X obj 5 5 cnv 30 30 42 empty empty empty 20 12 0 14 -262144 -66577
0;
#X obj 8 23 bng 24 250 50 0 \$1-clear-s \$1-clear-r CLEAR -2 -8 0 10
-257985 -1 -1;
#X obj 74 118 send \$1-tempo-r;
#X obj 232 118 send \$1-channel-r;
#X obj 392 118 send \$1-steps-r;
#X obj 550 118 send \$1-repeat-r;
#X obj 232 184 float 0;
#X obj 392 184 float 0;
#X obj 550 184 float 0;
#X obj 722 158 float \$1;
#X obj 722 189 pack f f s;
#X obj 722 128 t b f b;
#X obj 1199 270 f \$1;
#X obj 1238 270 f 0;
#X obj 1272 271 f 0;
#X obj 1199 225 t b b f;
#X obj 1238 155 float;
#X msg 1199 342 \; state-\$1-\$2-\$3-r set 0;
#X obj 1199 314 pack f f f;
#X obj 74 60 receive \$1-clear-s;
#X obj 232 60 receive \$1-clear-s;
#X obj 392 60 receive \$1-clear-s;
#X obj 550 60 receive \$1-clear-s;
#X obj 1199 60 receive \$1-clear-s;
#X obj 232 155 receive \$1-clear-s;
#X obj 392 155 receive \$1-clear-s;
#X obj 550 155 receive \$1-clear-s;
#X obj 722 60 receive \$1-clear-s;
#X text 76 22 Parameters:;
#X text 723 22 Instruments:;
#X text 1200 22 Patterns:;
#X obj 74 308 send \$1-level-1-r;
#X obj 232 308 send \$1-level-2-r;
#X obj 392 308 send \$1-level-3-r;
#X obj 550 308 send \$1-level-4-r;
#X obj 74 250 receive \$1-clear-s;
#X obj 232 250 receive \$1-clear-s;
#X obj 392 250 receive \$1-clear-s;
#X obj 550 250 receive \$1-clear-s;
#X obj 74 184 float 4;
#X obj 74 155 receive \$1-clear-s;
#X obj 74 213 send \$1-beat-len-r;
#X obj 74 89 float 120;
#X obj 232 89 float 10;
#X obj 392 89 float 32;
#X obj 550 89 float 1;
#X obj 232 213 send \$1-swing-r;
#X obj 392 213 send \$1-rnd-prob-r;
#X obj 550 213 send \$1-rnd-amd-r;
#X obj 74 279 float 60;
#X obj 232 279 float 80;
#X obj 392 279 float 100;
#X obj 550 279 float 120;
#X obj 724 326 receive \$1-clear-s;
#X obj 724 354 symbol Untitled;
#X text 724 296 Set pattern name:;
#X obj 722 93 for++ 0 7;
#X obj 1199 93 for++ 0 7;
#X obj 1199 188 for++ 0 31;
#X obj 1199 126 t b f;
#X msg 722 226 \; instr-\$1-\$2-r symbol \$3;
#X obj 789 156 symbol 00 Unassigned;
#X obj 958 158 float \$1;
#X obj 958 60 receive \$1-clear-s;
#X obj 958 93 for++ 0 7;
#X text 959 22 Mute Buttons:;
#X obj 958 128 t b f;
#X obj 958 189 pack f f;
#X msg 958 226 \; mute-\$1-\$2 set 0;
#X obj 724 382 send \$1-pattern-r;
#X obj 958 326 receive \$1-clear-s;
#X text 958 296 Set drumkit name:;
#X obj 958 354 symbol General-Midi;
#X obj 958 382 send drumkit-\$1-r;
#X connect 6 0 46 0;
#X connect 7 0 47 0;
#X connect 8 0 48 0;
#X connect 9 0 10 0;
#X connect 10 0 60 0;
#X connect 11 0 9 0;
#X connect 11 1 10 1;
#X connect 11 2 61 0;
#X connect 12 0 18 0;
#X connect 13 0 18 1;
#X connect 14 0 18 2;
#X connect 15 0 12 0;
#X connect 15 1 13 0;
#X connect 15 2 14 0;
#X connect 16 0 13 0;
#X connect 18 0 17 0;
#X connect 19 0 42 0;
#X connect 20 0 43 0;
#X connect 21 0 44 0;
#X connect 22 0 45 0;
#X connect 23 0 57 0;
#X connect 24 0 6 0;
#X connect 25 0 7 0;
#X connect 26 0 8 0;
#X connect 27 0 56 0;
#X connect 35 0 49 0;
#X connect 36 0 50 0;
#X connect 37 0 51 0;
#X connect 38 0 52 0;
#X connect 39 0 41 0;
#X connect 40 0 39 0;
#X connect 42 0 2 0;
#X connect 43 0 3 0;
#X connect 44 0 4 0;
#X connect 45 0 5 0;
#X connect 49 0 31 0;
#X connect 50 0 32 0;
#X connect 51 0 33 0;
#X connect 52 0 34 0;
#X connect 53 0 54 0;
#X connect 54 0 69 0;
#X connect 56 0 11 0;
#X connect 57 0 59 0;
#X connect 58 0 15 0;
#X connect 59 0 58 0;
#X connect 59 1 16 0;
#X connect 61 0 10 2;
#X connect 62 0 67 0;
#X connect 63 0 64 0;
#X connect 64 0 66 0;
#X connect 66 0 62 0;
#X connect 66 1 67 1;
#X connect 67 0 68 0;
#X connect 70 0 72 0;
#X connect 72 0 73 0;
#X coords 0 -1 1 1 30 42 2 5 5;
