#N canvas 843 228 431 580 12;
#X obj 5 5 cnv 15 70 35 empty empty empty 20 12 0 14 -262144 -66577
0;
#X obj 199 37 get-parms \$1;
#X obj 199 11 loadbang;
#X floatatom 274 262 3 0 0 1 <==STEPS/BEAT - -;
#X floatatom 254 213 3 0 0 1 STEPS - -;
#X floatatom 236 162 10 0 0 1 <==MS/BEAT - -;
#X floatatom 217 110 3 0 0 1 <==REPEAT - -;
#X obj 236 139 get-parm 1;
#X obj 254 191 get-parm 3;
#X obj 274 241 get-parm 5;
#X obj 217 88 get-parm 4;
#X obj 199 63 t b l l l l;
#X obj 236 294 /;
#X floatatom 236 317 10 0 0 1 <==MS/STEP - -;
#X floatatom 236 421 10 0 0 1 <==DUR_(MS) - -;
#X obj 236 343 *;
#X obj 236 394 *;
#X floatatom 236 369 10 0 0 0 - - -;
#X obj 164 230 t b b b;
#X msg 236 499 set \$1;
#X floatatom 236 473 10 0 0 1 <==DUR_(SEC) - -;
#X obj 207 450 bng 15 250 50 0 empty empty empty 17 7 0 10 -262144
-1 -1;
#X obj 236 525 send \$1-duration-r;
#X obj 236 446 / 1000;
#X obj 209 403 bng 15 250 50 0 empty empty empty 17 7 0 10 -262144
-1 -1;
#X obj 7 17 nbx 6 20 -1e+037 1e+037 0 0 empty empty empty 0 -8 0 10
-258113 -1 -1 0 256;
#X obj 7 17 nbx 6 20 -1e+037 1e+037 0 0 \$1-duration-s \$1-duration-r
Duration 0 -8 0 10 -204786 -1 -1 10 256;
#X connect 1 0 11 0;
#X connect 2 0 1 0;
#X connect 3 0 12 1;
#X connect 4 0 15 1;
#X connect 5 0 12 0;
#X connect 6 0 16 1;
#X connect 7 0 5 0;
#X connect 8 0 4 0;
#X connect 9 0 3 0;
#X connect 10 0 6 0;
#X connect 11 0 18 0;
#X connect 11 1 10 0;
#X connect 11 2 7 0;
#X connect 11 3 8 0;
#X connect 11 4 9 0;
#X connect 12 0 13 0;
#X connect 13 0 15 0;
#X connect 14 0 23 0;
#X connect 15 0 17 0;
#X connect 16 0 14 0;
#X connect 17 0 16 0;
#X connect 18 0 13 0;
#X connect 18 1 6 0;
#X connect 18 2 4 0;
#X connect 19 0 22 0;
#X connect 20 0 19 0;
#X connect 21 0 20 0;
#X connect 23 0 20 0;
#X connect 24 0 14 0;
#X coords 0 -1 1 1 70 35 2 5 5;
