#N canvas 17 66 574 666 12;
#X obj 205 24 inlet channel;
#X obj 120 24 inlet vel;
#X obj 30 24 inlet note;
#X obj 44 534 outlet;
#X floatatom 62 94 5 0 0 0 - - -;
#X obj 30 172 pack f f;
#X symbolatom 235 95 20 0 0 0 - - -;
#X obj 30 119 float \$1;
#X obj 30 65 t b f;
#X floatatom 30 146 5 0 0 0 - - -;
#X obj 7 72 bng 15 250 50 0 empty empty empty 17 7 0 10 -262144 -1
-1;
#X msg 30 196 \; instr-\$1-\$2-r bang;
#X obj 235 71 receive instr-\$1-0-s;
#X obj 235 118 send \$0-instrument;
#X symbolatom 235 165 20 0 0 0 - - -;
#X obj 235 188 send \$0-instrument;
#X symbolatom 235 235 20 0 0 0 - - -;
#X obj 235 258 send \$0-instrument;
#X symbolatom 235 305 20 0 0 0 - - -;
#X obj 235 328 send \$0-instrument;
#X symbolatom 403 95 20 0 0 0 - - -;
#X obj 403 118 send \$0-instrument;
#X symbolatom 403 165 20 0 0 0 - - -;
#X obj 403 188 send \$0-instrument;
#X symbolatom 403 235 20 0 0 0 - - -;
#X obj 403 258 send \$0-instrument;
#X symbolatom 403 305 20 0 0 0 - - -;
#X obj 403 328 send \$0-instrument;
#X obj 235 141 receive instr-\$1-1-s;
#X obj 235 211 receive instr-\$1-2-s;
#X obj 235 281 receive instr-\$1-3-s;
#X obj 403 71 receive instr-\$1-4-s;
#X obj 403 141 receive instr-\$1-5-s;
#X obj 403 211 receive instr-\$1-6-s;
#X obj 403 281 receive instr-\$1-7-s;
#X obj 30 244 receive \$0-instrument;
#X obj 30 507 pack f f f;
#X obj 30 613 send-note;
#X obj 50 333 easyflow/symbolToFloat;
#X obj 50 312 easyflow/substring 0 3;
#X obj 215 213 bng 15 250 50 0 empty empty empty 17 7 0 10 -262144
-1 -1;
#X obj 70 382 easyflow/symbolToFloat;
#X obj 90 431 easyflow/symbolToFloat;
#X obj 70 361 easyflow/substring 0 2;
#X obj 90 410 easyflow/substring 0 1;
#X obj 30 474 float;
#X obj 280 404 s get-state-\$1-r;
#X obj 280 376 bng 15 250 50 0 empty empty empty 17 7 0 10 -262144
-1 -1;
#X obj 280 431 r get-state-\$1-s;
#X obj 280 489 sel 1;
#X msg 280 518 1;
#X msg 312 518 0;
#X obj 280 550 tgl 15 0 empty empty empty 17 7 0 10 -262144 -1 -1 1
1;
#X floatatom 280 460 5 0 0 0 - - -;
#X obj 30 278 t b a a a b;
#X obj 30 588 spigot;
#X connect 0 0 36 2;
#X connect 1 0 36 1;
#X connect 2 0 8 0;
#X connect 4 0 5 1;
#X connect 5 0 11 0;
#X connect 6 0 13 0;
#X connect 7 0 9 0;
#X connect 8 0 7 0;
#X connect 8 1 4 0;
#X connect 9 0 5 0;
#X connect 10 0 7 0;
#X connect 12 0 6 0;
#X connect 14 0 15 0;
#X connect 16 0 17 0;
#X connect 18 0 19 0;
#X connect 20 0 21 0;
#X connect 22 0 23 0;
#X connect 24 0 25 0;
#X connect 26 0 27 0;
#X connect 28 0 14 0;
#X connect 29 0 16 0;
#X connect 30 0 18 0;
#X connect 31 0 20 0;
#X connect 32 0 22 0;
#X connect 33 0 24 0;
#X connect 34 0 26 0;
#X connect 35 0 54 0;
#X connect 36 0 3 0;
#X connect 36 0 55 0;
#X connect 38 0 45 1;
#X connect 39 0 38 0;
#X connect 40 0 16 0;
#X connect 41 0 45 1;
#X connect 42 0 45 1;
#X connect 43 0 41 0;
#X connect 44 0 42 0;
#X connect 45 0 36 0;
#X connect 47 0 46 0;
#X connect 48 0 53 0;
#X connect 49 0 50 0;
#X connect 49 1 51 0;
#X connect 50 0 52 0;
#X connect 51 0 52 0;
#X connect 52 0 55 1;
#X connect 53 0 49 0;
#X connect 54 0 45 0;
#X connect 54 1 39 0;
#X connect 54 2 43 0;
#X connect 54 3 44 0;
#X connect 54 4 47 0;
#X connect 55 0 37 0;
