#N canvas 396 95 555 688 12;
#X obj 30 22 inlet parms;
#X floatatom 447 144 5 0 0 3 Lvl-4 - -;
#X floatatom 394 144 5 0 0 3 Lvl-3 - -;
#X floatatom 342 144 5 0 0 3 Lvl-2 - -;
#X floatatom 290 144 5 0 0 3 Lvl-1 - -;
#X floatatom 238 144 5 0 0 3 Beat - -;
#X floatatom 186 144 5 0 0 3 Repeat - -;
#X floatatom 134 144 5 0 0 3 Steps - -;
#X floatatom 82 144 5 0 0 3 Channel - -;
#X floatatom 30 144 5 0 0 3 MS - -;
#X obj 30 116 unpack float float float float float float float float
float;
#X obj 217 270 print get-parm Invalid creation argument;
#X obj 52 220 float \$1;
#X obj 210 319 tgl 15 0 empty empty empty 17 7 0 10 -257985 -1 -1 0
1;
#X obj 202 23 loadbang;
#X obj 202 51 float 0;
#X obj 202 79 send \$0-reset;
#X obj 30 81 t l b b;
#X obj 198 296 f 1;
#X obj 180 318 f 1;
#X obj 162 341 f 1;
#X obj 143 364 f 1;
#X obj 125 386 f 1;
#X obj 107 409 f 1;
#X obj 88 432 f 1;
#X obj 70 454 f 1;
#X obj 52 477 f 1;
#X obj 192 341 tgl 15 0 empty empty empty 17 7 0 10 -257985 -1 -1 0
1;
#X obj 173 364 tgl 15 0 empty empty empty 17 7 0 10 -257985 -1 -1 0
1;
#X obj 155 386 tgl 15 0 empty empty empty 17 7 0 10 -257985 -1 -1 0
1;
#X obj 137 409 tgl 15 0 empty empty empty 17 7 0 10 -257985 -1 -1 0
1;
#X obj 118 432 tgl 15 0 empty empty empty 17 7 0 10 -257985 -1 -1 1
1;
#X obj 100 454 tgl 15 0 empty empty empty 17 7 0 10 -257985 -1 -1 0
1;
#X obj 81 477 tgl 15 0 empty empty empty 17 7 0 10 -257985 -1 -1 0
1;
#X obj 31 188 receive \$0-reset;
#X obj 212 341 spigot;
#X obj 193 362 spigot;
#X obj 175 384 spigot;
#X obj 155 406 spigot;
#X obj 137 429 spigot;
#X obj 118 452 spigot;
#X obj 100 475 spigot;
#X obj 81 498 spigot;
#X obj 52 521 spigot;
#X obj 62 500 tgl 15 0 empty empty empty 17 7 0 10 -257985 -1 -1 0
1;
#X obj 212 590 float;
#X obj 212 618 nbx 3 14 -1e+037 1e+037 0 0 empty empty empty 0 -8 0
10 -257985 -1 -1 2 256;
#X obj 212 643 outlet;
#X obj 52 243 select 1 2 3 4 5 6 7 8 9;
#X connect 0 0 17 0;
#X connect 1 0 35 0;
#X connect 2 0 36 0;
#X connect 3 0 37 0;
#X connect 4 0 38 0;
#X connect 5 0 39 0;
#X connect 6 0 40 0;
#X connect 7 0 41 0;
#X connect 8 0 42 0;
#X connect 9 0 43 0;
#X connect 10 0 9 0;
#X connect 10 1 8 0;
#X connect 10 2 7 0;
#X connect 10 3 6 0;
#X connect 10 4 5 0;
#X connect 10 5 4 0;
#X connect 10 6 3 0;
#X connect 10 7 2 0;
#X connect 10 8 1 0;
#X connect 12 0 48 0;
#X connect 13 0 35 1;
#X connect 14 0 15 0;
#X connect 15 0 16 0;
#X connect 17 0 10 0;
#X connect 17 1 12 0;
#X connect 17 2 15 0;
#X connect 18 0 13 0;
#X connect 19 0 27 0;
#X connect 20 0 28 0;
#X connect 21 0 29 0;
#X connect 22 0 30 0;
#X connect 23 0 31 0;
#X connect 24 0 32 0;
#X connect 25 0 33 0;
#X connect 26 0 44 0;
#X connect 27 0 36 1;
#X connect 28 0 37 1;
#X connect 29 0 38 1;
#X connect 30 0 39 1;
#X connect 31 0 40 1;
#X connect 32 0 41 1;
#X connect 33 0 42 1;
#X connect 34 0 13 0;
#X connect 34 0 27 0;
#X connect 34 0 28 0;
#X connect 34 0 29 0;
#X connect 34 0 30 0;
#X connect 34 0 31 0;
#X connect 34 0 32 0;
#X connect 34 0 33 0;
#X connect 34 0 44 0;
#X connect 35 0 45 0;
#X connect 36 0 45 0;
#X connect 37 0 45 0;
#X connect 38 0 45 0;
#X connect 39 0 45 0;
#X connect 40 0 45 0;
#X connect 41 0 45 0;
#X connect 42 0 45 0;
#X connect 43 0 45 0;
#X connect 44 0 43 1;
#X connect 45 0 46 0;
#X connect 46 0 47 0;
#X connect 48 0 26 0;
#X connect 48 1 25 0;
#X connect 48 2 24 0;
#X connect 48 3 23 0;
#X connect 48 4 22 0;
#X connect 48 5 21 0;
#X connect 48 6 20 0;
#X connect 48 7 19 0;
#X connect 48 8 18 0;
#X connect 48 9 11 0;
