#N canvas 714 90 512 277 12;
#X declare -lib zexy;
#X declare -lib easyflow;
#X obj 18 10 inlet;
#X obj 201 11 declare -lib zexy;
#X msg 92 34 symbol 0;
#X obj 18 59 symbol2list;
#X obj 92 10 loadbang;
#N canvas 406 494 290 269 convert 0;
#X obj 43 110 f 10;
#X obj 23 191 int;
#X obj 23 10 inlet;
#X obj 23 224 outlet;
#X obj 43 75 select a A b B c C d D e E f F;
#X obj 77 110 f 11;
#X obj 112 110 f 12;
#X obj 146 110 f 13;
#X obj 181 110 f 14;
#X obj 215 110 f 15;
#X obj 23 42 route float;
#X obj 253 110 bng 15 250 50 0 empty empty empty 17 7 0 10 -262144
-1 -1;
#X connect 0 0 1 0;
#X connect 1 0 3 0;
#X connect 2 0 10 0;
#X connect 4 0 0 0;
#X connect 4 1 0 0;
#X connect 4 2 5 0;
#X connect 4 3 5 0;
#X connect 4 4 6 0;
#X connect 4 5 6 0;
#X connect 4 6 7 0;
#X connect 4 7 7 0;
#X connect 4 8 8 0;
#X connect 4 9 8 0;
#X connect 4 10 9 0;
#X connect 4 11 9 0;
#X connect 4 12 11 0;
#X connect 5 0 1 0;
#X connect 6 0 1 0;
#X connect 7 0 1 0;
#X connect 8 0 1 0;
#X connect 9 0 1 0;
#X connect 10 0 1 0;
#X connect 10 1 4 0;
#X restore 134 174 pd convert;
#X obj 201 38 declare -lib easyflow;
#X obj 18 145 easyflow/iterator;
#X msg 18 119 next;
#X obj 18 88 t b b a;
#X msg 165 115 symbol 7w;
#X obj 199 235 print;
#X obj 134 235 outlet;
#X obj 199 209 spigot;
#X obj 238 180 tgl 15 0 empty empty empty 17 7 0 10 -262144 -1 -1 0
1;
#X text 319 104 eg \, 'b9' -> 11 \, 9;
#X text 284 78 Converts hex digits to int's;
#X text 284 132 (ignoress invalid digits);
#X msg 165 82 symbol B9;
#X connect 0 0 3 0;
#X connect 2 0 3 1;
#X connect 3 0 9 0;
#X connect 4 0 2 0;
#X connect 5 0 13 0;
#X connect 5 0 12 0;
#X connect 7 2 5 0;
#X connect 8 0 7 0;
#X connect 9 0 8 0;
#X connect 9 1 8 0;
#X connect 9 2 7 1;
#X connect 10 0 3 0;
#X connect 13 0 11 0;
#X connect 14 0 13 1;
#X connect 18 0 3 0;
