#N canvas 164 239 417 221 12;
#X obj 5 5 cnv 15 20 20 empty empty empty 20 12 0 14 -262144 -66577
0;
#X obj 9 9 bng 12 250 50 0 led-\$1-\$2-s led-\$1-\$2-r empty 17 7 0
10 -262144 -258113 -1;
#X obj 85 34 bng 15 250 50 0 empty empty empty 17 7 0 10 -262144 -258113
-1;
#X obj 85 60 send led-\$1-\$2-r;
#X obj 245 31 bng 15 250 50 0 empty empty empty 17 7 0 10 -262144 -258113
-1;
#X obj 245 58 t b b;
#X obj 245 87 f \$1;
#X obj 280 87 f \$2;
#X obj 245 116 pack f f;
#X msg 245 152 \; led-\$1-\$2-r 1;
#X connect 2 0 3 0;
#X connect 4 0 5 0;
#X connect 5 0 6 0;
#X connect 5 1 7 0;
#X connect 6 0 8 0;
#X connect 7 0 8 1;
#X connect 8 0 9 0;
#X coords 0 -1 1 1 20 20 2 5 5;
