#N canvas 1030 630 338 154 12;
#X obj 5 5 cnv 15 50 30 empty empty empty 20 12 0 14 -262144 -66577
0;
#X obj 10 9 nbx 3 20 0 1e+037 0 0 \$1-loop-s \$1-loop-r empty 0 -8
0 10 -262144 -1 -1 8 256;
#X obj 10 9 nbx 3 20 0 1e+037 0 0 \$1-loop-s \$1-loop-r empty 0 -8
0 10 -262144 -1 -1 8 256;
#X obj 89 9 receive \$1-loop-r;
#X obj 89 61 spigot;
#X obj 89 95 print loop-count;
#X obj 128 37 tgl 15 0 empty empty <--debug 17 7 0 10 -257985 -1 -1
0 1;
#X connect 3 0 4 0;
#X connect 4 0 5 0;
#X connect 6 0 4 1;
#X coords 0 -1 1 1 50 30 2 5 5;
