#N canvas 79 343 671 454 12;
#X text 282 298 yellow;
#X text 404 298 orange;
#X text 529 298 red;
#X floatatom 364 116 5 0 0 1 - - -;
#X msg 178 321 color 6 6 6;
#X msg 281 321 color 15 15 15;
#X msg 402 321 color 14 14 14;
#X msg 526 321 color 13 13 13;
#X obj 76 78 float 1;
#X obj 76 144 +;
#X text 408 116 <== STATE;
#X obj 76 52 bng 15 250 50 0 empty empty empty 17 7 0 10 -262144 -1
-1;
#X text 184 297 green;
#X obj 535 27 loadbang;
#X floatatom 535 66 5 0 0 1 - - -;
#X obj 508 27 bng 15 250 50 0 empty empty empty 17 7 0 10 -262144 -1
-1;
#X obj 76 175 % 5;
#X obj 76 221 route 0 1 2 3 4;
#X obj 364 139 % 5;
#X text 82 297 white;
#X msg 76 321 color 0 0 0;
#X obj 320 71 route get set;
#X obj 5 5 cnv 20 20 20 empty empty empty 20 12 0 14 -228856 -66577
0;
#X obj 5 5 tgl 20 0 \$1-s \$1-r empty 17 7 0 10 -258699 -258699 -258699
0 1;
#X floatatom 320 180 5 0 0 1 - - -;
#X obj 320 96 bng 15 250 50 0 empty empty empty 17 7 0 10 -262144 -1
-1;
#X obj 76 21 receive \$1-s;
#X obj 76 403 send \$1-r;
#X obj 320 24 receive state-\$1-r;
#X obj 320 214 send toggle-state;
#X obj 374 96 bng 15 250 50 0 empty empty empty 17 7 0 10 -262144 -1
-1;
#X obj 333 51 bng 15 250 50 0 empty empty empty 17 7 0 10 -262144 -1
-1;
#X connect 3 0 9 1;
#X connect 3 0 18 0;
#X connect 4 0 27 0;
#X connect 5 0 27 0;
#X connect 6 0 27 0;
#X connect 7 0 27 0;
#X connect 8 0 9 0;
#X connect 9 0 16 0;
#X connect 11 0 8 0;
#X connect 13 0 14 0;
#X connect 14 0 3 0;
#X connect 15 0 14 0;
#X connect 16 0 3 0;
#X connect 16 0 17 0;
#X connect 17 0 20 0;
#X connect 17 1 4 0;
#X connect 17 2 5 0;
#X connect 17 3 6 0;
#X connect 17 4 7 0;
#X connect 18 0 17 0;
#X connect 18 0 24 0;
#X connect 20 0 27 0;
#X connect 21 0 25 0;
#X connect 21 1 3 0;
#X connect 21 1 30 0;
#X connect 24 0 29 0;
#X connect 25 0 24 0;
#X connect 26 0 11 0;
#X connect 28 0 21 0;
#X connect 28 0 31 0;
#X coords 0 -1 1 1 20 20 2 5 5;
