#N canvas 167 218 316 456 12;
#X obj 30 409 next-instrument \$1;
#X obj 162 278 outlet;
#X obj 30 101 bng 15 250 50 0 empty empty empty 17 7 0 10 -262144 -1
-1;
#X obj 30 211 for++ 0 7 0 1;
#X obj 30 22 inlet step;
#X obj 53 270 f \$1;
#X obj 30 240 t f b f;
#X obj 53 351 tgl 15 0 empty empty empty 17 7 0 10 -262144 -1 -1 1
1;
#X obj 53 326 == 0;
#X obj 30 381 spigot;
#X obj 53 296 get-mute \$1;
#X obj 99 95 f \$1;
#X obj 99 119 pack f f;
#X msg 99 144 \; led-\$1-\$2-r 1;
#X obj 30 60 t f f b f;
#X obj 73 100 bng 15 250 50 0 empty empty empty 17 7 0 10 -262144 -1
-1;
#X obj 170 80 print next-step;
#X obj 170 54 spigot;
#X obj 209 29 tgl 15 0 empty empty DEBUG 20 7 0 10 -262144 -1 -1 0
1;
#X connect 2 0 3 0;
#X connect 3 0 6 0;
#X connect 3 1 1 0;
#X connect 4 0 14 0;
#X connect 4 0 17 0;
#X connect 5 0 10 0;
#X connect 6 0 9 0;
#X connect 6 1 5 0;
#X connect 6 2 10 1;
#X connect 7 0 9 1;
#X connect 8 0 7 0;
#X connect 9 0 0 0;
#X connect 10 0 8 0;
#X connect 11 0 12 0;
#X connect 12 0 13 0;
#X connect 14 0 2 0;
#X connect 14 1 0 1;
#X connect 14 2 11 0;
#X connect 14 2 15 0;
#X connect 14 3 12 1;
#X connect 17 0 16 0;
#X connect 18 0 17 1;
