#N canvas 7 186 635 576 12;
#X obj 138 530 outlet;
#X obj 43 53 bng 15 250 50 0 empty empty empty 17 7 0 10 -262144 -1
-1;
#X obj 43 530 next-step \$1;
#X obj 107 120 get-parms \$1;
#X floatatom 152 301 3 0 0 1 STEPS/BEAT - -;
#X floatatom 130 252 3 0 0 1 STEPS - -;
#X floatatom 107 201 8 0 0 1 MS/BEAT - -;
#X obj 107 144 t l l l;
#X obj 107 333 /;
#X floatatom 107 356 5 0 0 1 MS/STEP - -;
#X obj 74 448 - 1;
#X obj 43 22 inlet loop;
#X obj 175 85 print next-loop;
#X obj 107 178 get-parm 1;
#X obj 130 230 get-parm 3;
#X obj 152 280 get-parm 5;
#X obj 43 492 for++ 0 31 0 1;
#X obj 175 59 spigot;
#X obj 214 28 tgl 15 0 empty empty empty 17 7 0 10 -262144 -1 -1 0
1;
#X text 233 25 <== debug;
#X msg 320 148 stop;
#X floatatom 328 357 5 0 0 1 STEP - -;
#X msg 413 267 stop;
#X obj 328 328 float 0;
#X obj 367 401 tgl 15 0 empty empty empty 17 7 0 10 -262144 -1 -1 0
1;
#X obj 328 432 spigot;
#X obj 367 240 t b b b;
#X obj 441 149 print next-loop Error;
#X obj 320 86 select 0 1 2 3;
#X msg 391 148 stop;
#X obj 43 78 t b b;
#X msg 343 176 start;
#X obj 320 116 bng 15 250 50 0 empty empty empty 17 7 0 10 -262144
-1 -1;
#X obj 343 116 bng 15 250 50 0 empty empty empty 17 7 0 10 -262144
-1 -1;
#X obj 367 116 bng 15 250 50 0 empty empty empty 17 7 0 10 -262144
-1 -1;
#X obj 391 116 bng 15 250 50 0 empty empty empty 17 7 0 10 -262144
-1 -1;
#X obj 415 116 bng 15 250 50 0 empty empty empty 17 7 0 10 -262144
-1 -1;
#X obj 320 59 receive run-state-\$1-r;
#X connect 1 0 30 0;
#X connect 3 0 7 0;
#X connect 4 0 8 1;
#X connect 5 0 10 0;
#X connect 6 0 8 0;
#X connect 7 0 13 0;
#X connect 7 1 14 0;
#X connect 7 2 15 0;
#X connect 8 0 9 0;
#X connect 9 0 16 2;
#X connect 10 0 16 1;
#X connect 11 0 1 0;
#X connect 11 0 17 0;
#X connect 13 0 6 0;
#X connect 14 0 5 0;
#X connect 15 0 4 0;
#X connect 16 0 2 0;
#X connect 16 0 21 0;
#X connect 16 1 0 0;
#X connect 16 1 23 0;
#X connect 17 0 12 0;
#X connect 18 0 17 1;
#X connect 20 0 16 0;
#X connect 21 0 25 0;
#X connect 22 0 16 0;
#X connect 23 0 21 0;
#X connect 24 0 25 1;
#X connect 25 0 16 0;
#X connect 26 0 24 0;
#X connect 26 1 24 0;
#X connect 26 2 22 0;
#X connect 28 0 32 0;
#X connect 28 1 33 0;
#X connect 28 2 34 0;
#X connect 28 3 35 0;
#X connect 28 4 36 0;
#X connect 29 0 16 0;
#X connect 30 0 16 0;
#X connect 30 1 3 0;
#X connect 32 0 20 0;
#X connect 33 0 31 0;
#X connect 34 0 26 0;
#X connect 35 0 29 0;
#X connect 36 0 27 0;
#X connect 37 0 28 0;
