#N canvas 841 95 450 156 12;
#X obj 239 48 loadbang;
#X obj 213 51 bng 15 250 50 0 empty empty empty 17 7 0 10 -262144 -1
-1;
#X obj 239 78 symbol \$1;
#X obj 5 5 cnv 18 212 18 empty empty empty 20 12 0 14 -262130 -66577
0;
#X symbolatom 5 5 30 0 0 0 - #2-pattern-r #2-pattern-s;
#X obj 62 105 print pattern-name;
#X obj 62 73 float \$2;
#X obj 239 108 send \$0-pattern-r;
#X connect 0 0 2 0;
#X connect 1 0 2 0;
#X connect 2 0 7 0;
#X connect 6 0 5 0;
#X coords 0 -1 1 1 212 18 2 5 5;
