#N canvas 911 78 459 661 12;
#X obj 31 18 inlet;
#X obj 246 113 inlet;
#X obj 312 113 inlet;
#X obj 31 80 bng 15 250 50 0 empty empty empty 17 7 0 10 -262144 -1
-1;
#X floatatom 246 140 5 0 0 0 - - -;
#X floatatom 312 140 5 0 0 0 - - -;
#X obj 246 170 f \$2;
#X obj 312 170 f \$3;
#X obj 31 54 route bang start stop float;
#X obj 237 585 outlet Done;
#X obj 96 585 outlet next;
#X floatatom 170 82 5 0 0 0 - - -;
#X obj 170 113 f \$1;
#X obj 77 80 bng 15 250 50 0 empty empty empty 17 7 0 10 -262144 -1
-1;
#X obj 124 80 bng 15 250 50 0 empty empty empty 17 7 0 10 -262144 -1
-1;
#X obj 217 82 print pfor Invalid input;
#X obj 64 324 sel 1;
#X floatatom 246 228 5 0 0 0 - - -;
#X floatatom 312 228 5 0 0 0 - - -;
#X obj 294 305 +;
#X obj 348 23 loadbang;
#X obj 64 352 t b b;
#X obj 31 105 t b b;
#X floatatom 32 183 5 0 0 0 - - -;
#X floatatom 96 483 5 0 0 0 - - -;
#X floatatom 294 387 5 0 0 0 - - -;
#X msg 32 154 set \$1;
#X msg 128 451 set \$1;
#X msg 304 359 set \$1;
#X text 29 626 Copyright (c) 2021 David Kettle.;
#X obj 32 212 t f f;
#X obj 96 558 spigot;
#X obj 135 535 tgl 15 0 empty empty empty 17 7 0 10 -262144 -1 -1 0
1;
#X obj 135 505 f 1;
#X obj 171 505 f 0;
#X obj 64 269 expr if($f3 != 0 \, if($f3 > 0 \, if($f1<=$f2 \, 1 \,
0) \, if($f1>=$f2 \, 1 \, 0)) \, 1);
#X connect 0 0 8 0;
#X connect 1 0 4 0;
#X connect 2 0 5 0;
#X connect 3 0 22 0;
#X connect 4 0 6 0;
#X connect 5 0 7 0;
#X connect 6 0 17 0;
#X connect 7 0 18 0;
#X connect 8 0 3 0;
#X connect 8 1 13 0;
#X connect 8 2 14 0;
#X connect 8 3 11 0;
#X connect 8 4 15 0;
#X connect 11 0 12 0;
#X connect 12 0 26 0;
#X connect 12 0 27 0;
#X connect 12 0 28 0;
#X connect 13 0 12 0;
#X connect 13 0 33 0;
#X connect 13 0 7 0;
#X connect 13 0 6 0;
#X connect 14 0 9 0;
#X connect 14 0 12 0;
#X connect 14 0 34 0;
#X connect 16 0 21 0;
#X connect 16 1 9 0;
#X connect 16 1 34 0;
#X connect 17 0 35 1;
#X connect 18 0 19 1;
#X connect 18 0 35 2;
#X connect 19 0 25 0;
#X connect 20 0 12 0;
#X connect 20 0 6 0;
#X connect 20 0 7 0;
#X connect 21 0 25 0;
#X connect 21 1 24 0;
#X connect 22 0 23 0;
#X connect 22 1 17 0;
#X connect 23 0 30 0;
#X connect 24 0 31 0;
#X connect 25 0 27 0;
#X connect 25 0 26 0;
#X connect 26 0 23 0;
#X connect 27 0 24 0;
#X connect 28 0 25 0;
#X connect 30 0 19 0;
#X connect 30 1 35 0;
#X connect 31 0 10 0;
#X connect 32 0 31 1;
#X connect 33 0 32 0;
#X connect 34 0 32 0;
#X connect 35 0 16 0;
