#N canvas 844 367 384 370 12;
#X obj 28 21 inlet;
#X obj 91 21 inlet;
#X obj 28 123 tgl 15 0 empty empty empty 17 7 0 10 -262144 -1 -1 0
1;
#X obj 91 123 tgl 15 0 empty empty empty 17 7 0 10 -262144 -1 -1 0
1;
#X obj 28 178 expr $i1 + $i2;
#X floatatom 28 217 5 0 0 0 - - -;
#X obj 91 145 t b f;
#X obj 28 246 select 2;
#X obj 28 283 t b b;
#X obj 28 328 outlet;
#X text 136 228 psync - wait for both \; inlets to bang;
#X obj 174 83 int 0;
#X obj 38 307 bng 15 250 50 0 empty empty empty 17 7 0 10 -262144 -1
-1;
#X obj 189 50 receive song-stop;
#X obj 174 21 receive song-start;
#X connect 0 0 2 0;
#X connect 1 0 3 0;
#X connect 2 0 4 0;
#X connect 3 0 6 0;
#X connect 4 0 5 0;
#X connect 5 0 7 0;
#X connect 6 0 4 0;
#X connect 6 1 4 1;
#X connect 7 0 8 0;
#X connect 8 0 9 0;
#X connect 8 0 12 0;
#X connect 8 1 11 0;
#X connect 11 0 3 0;
#X connect 11 0 2 0;
#X connect 13 0 11 0;
#X connect 14 0 11 0;
