#N canvas 636 235 728 430 12;
#X obj 324 19 loadbang;
#X floatatom 324 76 5 0 0 1 - - -;
#X obj 297 19 bng 15 250 50 0 empty empty empty 17 7 0 10 -262144 -1
-1;
#X text 592 19 0: idle;
#X text 592 54 2: paused;
#X text 592 36 1: running;
#X obj 123 61 print run-state Error;
#X obj 340 237 tgl 15 0 empty empty 2 4 24 0 10 -262144 -1 -1 0 1;
#X obj 286 237 tgl 15 0 empty empty 1 4 24 0 10 -262144 -1 -1 0 1;
#X obj 232 237 tgl 15 0 empty empty 0 4 24 0 10 -262144 -1 -1 1 1;
#X obj 324 100 t f b;
#X obj 356 126 f 0;
#X obj 324 159 sel 0 1 2;
#X obj 75 144 spigot;
#X obj 28 38 select 0 1 2 3;
#X obj 99 198 f 0;
#X obj 75 168 f 2;
#X obj 384 182 print run-state Error;
#X text 529 19 STATES:;
#X text 527 103 TRANSITIONS:;
#X text 629 101 0: stop;
#X text 629 118 1: start;
#X text 629 136 2: pause;
#X text 629 155 3: rewind;
#X obj 28 63 bng 15 250 50 0 empty empty empty 17 7 0 10 -262144 -1
-1;
#X obj 99 63 bng 15 250 50 0 empty empty empty 17 7 0 10 -262144 -1
-1;
#X obj 75 63 bng 15 250 50 0 empty empty empty 17 7 0 10 -262144 -1
-1;
#X obj 51 63 bng 15 250 50 0 empty empty empty 17 7 0 10 -262144 -1
-1;
#X floatatom 28 273 5 0 0 0 - - -;
#X obj 28 89 f 0;
#X obj 51 116 f 1;
#X obj 193 357 spigot;
#X obj 28 15 receive run-state-\$1-r;
#X obj 193 288 r get-state-\$1-r;
#X obj 193 393 s get-state-\$1-s;
#X obj 193 329 f 0;
#X obj 247 357 spigot;
#X obj 247 329 f 1;
#X obj 301 357 spigot;
#X obj 301 329 f 2;
#X obj 170 317 bng 15 250 50 0 empty empty empty 17 7 0 10 -262144
-1 -1;
#X connect 0 0 1 0;
#X connect 1 0 10 0;
#X connect 2 0 1 0;
#X connect 7 0 38 1;
#X connect 8 0 13 1;
#X connect 8 0 36 1;
#X connect 9 0 31 1;
#X connect 10 0 12 0;
#X connect 10 1 11 0;
#X connect 11 0 7 0;
#X connect 11 0 8 0;
#X connect 11 0 9 0;
#X connect 12 0 9 0;
#X connect 12 1 8 0;
#X connect 12 2 7 0;
#X connect 12 3 17 0;
#X connect 13 0 16 0;
#X connect 14 0 24 0;
#X connect 14 1 27 0;
#X connect 14 2 26 0;
#X connect 14 3 25 0;
#X connect 14 4 6 0;
#X connect 15 0 28 0;
#X connect 16 0 28 0;
#X connect 24 0 29 0;
#X connect 25 0 15 0;
#X connect 26 0 13 0;
#X connect 27 0 30 0;
#X connect 28 0 1 0;
#X connect 29 0 28 0;
#X connect 30 0 28 0;
#X connect 31 0 34 0;
#X connect 32 0 14 0;
#X connect 33 0 35 0;
#X connect 33 0 37 0;
#X connect 33 0 39 0;
#X connect 33 0 40 0;
#X connect 35 0 31 0;
#X connect 36 0 34 0;
#X connect 37 0 36 0;
#X connect 38 0 34 0;
#X connect 39 0 38 0;
#X coords 0 430 1 429 60 20 0;
