#N canvas 707 0 654 802 12;
#X obj 42 25 inlet;
#X obj 65 165 get-parms \$1;
#X obj 42 57 bng 15 250 50 0 empty empty empty 17 7 0 10 -262144 -1
-1;
#X floatatom 125 389 10 0 0 1 STEPS/BEAT - -;
#X floatatom 105 346 3 0 0 1 LENGTH - -;
#X floatatom 85 293 10 0 0 1 MS/BEAT - -;
#X floatatom 65 238 3 0 0 1 REPEAT - -;
#X obj 65 189 t l l l l;
#X obj 85 368 *;
#X obj 85 412 /;
#X floatatom 85 435 10 0 0 1 MS/STEP - -;
#X obj 42 749 next-loop \$1;
#X obj 317 538 outlet;
#X obj 120 25 symbol \$2;
#X msg 120 49 \; msg-log-r Running \$1;
#X obj 42 497 for++ 0 0 0 1;
#X obj 65 467 - 1;
#X obj 85 270 get-parm 1;
#X obj 105 324 get-parm 3;
#X obj 125 368 get-parm 5;
#X obj 65 216 get-parm 4;
#X obj 486 16 loadbang;
#X obj 486 44 float 0;
#X obj 88 111 float 1;
#X obj 457 18 bng 15 250 50 0 empty empty empty 17 7 0 10 -262144 -1
-1;
#X obj 130 523 float 0;
#X msg 295 144 stop;
#X obj 486 69 send run-state-\$1-r;
#X obj 130 548 send run-state-\$1-r;
#X obj 408 144 print run-pattern Error;
#X obj 317 477 spigot;
#X obj 356 456 tgl 15 0 empty empty empty 17 7 0 10 -262144 -1 -1 0
1;
#X obj 356 410 loadbang;
#X msg 366 144 stop;
#X obj 42 82 t b b b;
#X obj 295 55 receive run-state-\$1-r;
#X obj 295 82 select 0 1 2 3;
#X obj 295 114 bng 15 250 50 0 empty empty empty 17 7 0 10 -262144
-1 -1;
#X obj 318 114 bng 15 250 50 0 empty empty empty 17 7 0 10 -262144
-1 -1;
#X obj 342 114 bng 15 250 50 0 empty empty empty 17 7 0 10 -262144
-1 -1;
#X obj 366 114 bng 15 250 50 0 empty empty empty 17 7 0 10 -262144
-1 -1;
#X obj 390 114 bng 15 250 50 0 empty empty empty 17 7 0 10 -262144
-1 -1;
#X obj 431 219 run-state \$1;
#X obj 356 433 f 0;
#X obj 326 433 f 1;
#X obj 446 380 receive song-start;
#X obj 446 472 tgl 15 0 empty empty empty 17 7 0 10 -262144 -1 -1 0
1;
#X obj 317 509 spigot;
#X obj 479 409 receive song-stop;
#X obj 479 438 f 0;
#X obj 446 438 f 1;
#X obj 88 136 send run-state-\$1;
#X obj 479 472 send run-state-\$1-r;
#X obj 88 634 spigot;
#X obj 127 605 tgl 15 0 empty empty <--debug 17 7 0 10 -257985 -1 -1
0 1;
#X obj 88 659 time-it run-pattern;
#X obj 42 604 t f f f;
#X obj 65 720 send \$1-loop-r;
#X obj 99 575 send \$1-loop-r;
#X obj 65 689 + 1;
#X floatatom 42 539 5 0 1e+037 0 - - -;
#X text 430 198 Do not delete:;
#X connect 0 0 2 0;
#X connect 0 0 13 0;
#X connect 1 0 7 0;
#X connect 2 0 34 0;
#X connect 2 0 44 0;
#X connect 3 0 9 1;
#X connect 4 0 8 1;
#X connect 5 0 8 0;
#X connect 6 0 16 0;
#X connect 7 0 20 0;
#X connect 7 1 17 0;
#X connect 7 2 18 0;
#X connect 7 3 19 0;
#X connect 8 0 9 0;
#X connect 9 0 10 0;
#X connect 10 0 15 2;
#X connect 13 0 14 0;
#X connect 15 0 60 0;
#X connect 15 1 25 0;
#X connect 15 1 30 0;
#X connect 16 0 15 1;
#X connect 17 0 5 0;
#X connect 18 0 4 0;
#X connect 19 0 3 0;
#X connect 20 0 6 0;
#X connect 21 0 22 0;
#X connect 22 0 27 0;
#X connect 23 0 51 0;
#X connect 24 0 22 0;
#X connect 25 0 28 0;
#X connect 25 0 58 0;
#X connect 26 0 15 0;
#X connect 30 0 31 0;
#X connect 30 0 47 0;
#X connect 31 0 30 1;
#X connect 32 0 43 0;
#X connect 33 0 15 0;
#X connect 34 0 15 0;
#X connect 34 1 1 0;
#X connect 34 2 23 0;
#X connect 35 0 36 0;
#X connect 36 0 37 0;
#X connect 36 1 38 0;
#X connect 36 2 39 0;
#X connect 36 3 40 0;
#X connect 36 4 41 0;
#X connect 37 0 26 0;
#X connect 38 0 2 0;
#X connect 40 0 33 0;
#X connect 41 0 29 0;
#X connect 43 0 31 0;
#X connect 44 0 31 0;
#X connect 45 0 50 0;
#X connect 46 0 47 1;
#X connect 47 0 12 0;
#X connect 48 0 49 0;
#X connect 49 0 46 0;
#X connect 49 0 52 0;
#X connect 50 0 46 0;
#X connect 50 0 52 0;
#X connect 53 0 55 0;
#X connect 54 0 53 1;
#X connect 56 0 11 0;
#X connect 56 1 59 0;
#X connect 56 2 53 0;
#X connect 59 0 57 0;
#X connect 60 0 56 0;
