#N canvas 728 403 552 340 12;
#X obj 88 263 cyclone/seq;
#X msg 336 191 write;
#X obj 56 14 r song-start;
#X obj 336 14 r song-save;
#X obj 336 90 t b b;
#X obj 5 5 cnv 20 30 40 empty empty empty 20 12 0 14 -204800 -66577
0;
#X obj 5 25 bng 20 250 50 0 song-save \$0-noop Save 0 -9 0 10 -257985
-1 -1;
#X obj 56 42 bng 15 250 50 0 empty empty empty 17 7 0 10 -262144 -1
-1;
#X obj 336 42 bng 15 250 50 0 empty empty empty 17 7 0 10 -262144 -1
-1;
#X obj 185 14 r song-record;
#X obj 185 42 bng 15 250 50 0 empty empty empty 17 7 0 10 -262144 -1
-1;
#X msg 56 102 record;
#X obj 184 78 spigot;
#X obj 223 55 tgl 15 0 empty empty empty 17 7 0 10 -262144 -1 -1 0
1;
#X text 241 53 <== debug;
#X obj 184 104 print song-record;
#X obj 368 117 all-notes-off;
#X obj 336 154 delay 500;
#X obj 456 41 f 10;
#X obj 456 16 loadbang;
#X floatatom 456 68 3 0 0 1 Channel - -;
#X text 61 188 <== playback;
#X obj 88 300 midiout;
#X msg 20 223 print;
#X msg 20 188 start;
#X connect 0 0 22 0;
#X connect 1 0 0 0;
#X connect 2 0 7 0;
#X connect 3 0 8 0;
#X connect 4 0 17 0;
#X connect 4 1 16 0;
#X connect 7 0 11 0;
#X connect 8 0 4 0;
#X connect 9 0 10 0;
#X connect 9 0 12 0;
#X connect 9 0 0 0;
#X connect 11 0 0 0;
#X connect 12 0 15 0;
#X connect 13 0 12 1;
#X connect 16 0 0 0;
#X connect 17 0 1 0;
#X connect 18 0 20 0;
#X connect 19 0 18 0;
#X connect 20 0 16 1;
#X connect 20 0 22 1;
#X connect 23 0 0 0;
#X connect 24 0 0 0;
#X coords 0 -1 1 1 30 40 2 5 5;
